<mxfile host="app.diagrams.net" agent="Mozilla/5.0 (Windows NT 10.0; Win64; x64) AppleWebKit/537.36 (KHTML, like Gecko) Chrome/141.0.0.0 Safari/537.36 Edg/141.0.0.0" version="28.2.8" pages="2">
  <diagram name="ER (Final)" id="7zonP4YtOZ7cao2mnUy0">
    <mxGraphModel dx="6650" dy="2960" grid="1" gridSize="10" guides="1" tooltips="1" connect="1" arrows="1" fold="1" page="1" pageScale="1" pageWidth="850" pageHeight="1100" math="0" shadow="0">
      <root>
        <mxCell id="0" />
        <mxCell id="1" parent="0" />
        <mxCell id="q0F40TtUohviRgwyqJt9-1" style="edgeStyle=none;rounded=0;orthogonalLoop=1;jettySize=auto;html=1;endArrow=none;startFill=0;" edge="1" parent="1" source="q0F40TtUohviRgwyqJt9-10">
          <mxGeometry relative="1" as="geometry">
            <mxPoint x="-240" y="570" as="targetPoint" />
          </mxGeometry>
        </mxCell>
        <mxCell id="q0F40TtUohviRgwyqJt9-2" value="1" style="edgeLabel;html=1;align=center;verticalAlign=middle;resizable=0;points=[];" vertex="1" connectable="0" parent="q0F40TtUohviRgwyqJt9-1">
          <mxGeometry x="-0.5969" y="1" relative="1" as="geometry">
            <mxPoint as="offset" />
          </mxGeometry>
        </mxCell>
        <mxCell id="q0F40TtUohviRgwyqJt9-3" value="" style="edgeStyle=none;rounded=0;orthogonalLoop=1;jettySize=auto;html=1;elbow=vertical;entryX=1;entryY=0.5;entryDx=0;entryDy=0;endArrow=none;endFill=0;exitX=0.006;exitY=0.868;exitDx=0;exitDy=0;exitPerimeter=0;" edge="1" parent="1" source="q0F40TtUohviRgwyqJt9-10" target="q0F40TtUohviRgwyqJt9-50">
          <mxGeometry relative="1" as="geometry">
            <mxPoint x="-280" y="480" as="sourcePoint" />
          </mxGeometry>
        </mxCell>
        <mxCell id="q0F40TtUohviRgwyqJt9-4" value="1" style="edgeLabel;html=1;align=center;verticalAlign=middle;resizable=0;points=[];" vertex="1" connectable="0" parent="q0F40TtUohviRgwyqJt9-3">
          <mxGeometry x="-0.8733" y="-4" relative="1" as="geometry">
            <mxPoint as="offset" />
          </mxGeometry>
        </mxCell>
        <mxCell id="q0F40TtUohviRgwyqJt9-5" value="" style="edgeStyle=none;rounded=0;orthogonalLoop=1;jettySize=auto;html=1;elbow=vertical;endArrow=none;startFill=0;" edge="1" parent="1" source="q0F40TtUohviRgwyqJt9-10" target="q0F40TtUohviRgwyqJt9-52">
          <mxGeometry relative="1" as="geometry" />
        </mxCell>
        <mxCell id="q0F40TtUohviRgwyqJt9-6" value="1" style="edgeLabel;html=1;align=center;verticalAlign=middle;resizable=0;points=[];" vertex="1" connectable="0" parent="q0F40TtUohviRgwyqJt9-5">
          <mxGeometry x="-0.8627" y="1" relative="1" as="geometry">
            <mxPoint y="-1" as="offset" />
          </mxGeometry>
        </mxCell>
        <mxCell id="q0F40TtUohviRgwyqJt9-7" style="rounded=0;orthogonalLoop=1;jettySize=auto;html=1;entryX=1;entryY=0.5;entryDx=0;entryDy=0;endArrow=none;endFill=0;" edge="1" parent="1" source="q0F40TtUohviRgwyqJt9-10" target="q0F40TtUohviRgwyqJt9-77">
          <mxGeometry relative="1" as="geometry">
            <mxPoint x="-360" y="450" as="targetPoint" />
          </mxGeometry>
        </mxCell>
        <mxCell id="q0F40TtUohviRgwyqJt9-8" style="edgeStyle=none;rounded=0;orthogonalLoop=1;jettySize=auto;html=1;entryX=1;entryY=1;entryDx=0;entryDy=0;endArrow=none;endFill=0;" edge="1" parent="1" source="q0F40TtUohviRgwyqJt9-10" target="q0F40TtUohviRgwyqJt9-72">
          <mxGeometry relative="1" as="geometry" />
        </mxCell>
        <mxCell id="q0F40TtUohviRgwyqJt9-9" style="edgeStyle=none;rounded=0;orthogonalLoop=1;jettySize=auto;html=1;entryX=0.5;entryY=1;entryDx=0;entryDy=0;endArrow=none;endFill=0;" edge="1" parent="1" source="q0F40TtUohviRgwyqJt9-10" target="q0F40TtUohviRgwyqJt9-74">
          <mxGeometry relative="1" as="geometry" />
        </mxCell>
        <mxCell id="q0F40TtUohviRgwyqJt9-10" value="STUDENT" style="whiteSpace=wrap;html=1;rounded=0;" vertex="1" parent="1">
          <mxGeometry x="-290" y="449.98" width="70" height="30" as="geometry" />
        </mxCell>
        <mxCell id="q0F40TtUohviRgwyqJt9-11" value="ADMIN" style="whiteSpace=wrap;html=1;rounded=0;" vertex="1" parent="1">
          <mxGeometry x="566.25" y="1277.98" width="70" height="30" as="geometry" />
        </mxCell>
        <mxCell id="q0F40TtUohviRgwyqJt9-12" style="rounded=0;orthogonalLoop=1;jettySize=auto;html=1;entryX=0.5;entryY=0;entryDx=0;entryDy=0;endArrow=none;endFill=0;" edge="1" parent="1" source="q0F40TtUohviRgwyqJt9-14" target="q0F40TtUohviRgwyqJt9-108">
          <mxGeometry relative="1" as="geometry" />
        </mxCell>
        <mxCell id="q0F40TtUohviRgwyqJt9-13" style="edgeStyle=none;rounded=0;orthogonalLoop=1;jettySize=auto;html=1;entryX=0;entryY=0.5;entryDx=0;entryDy=0;endArrow=none;endFill=0;" edge="1" parent="1" source="q0F40TtUohviRgwyqJt9-14" target="q0F40TtUohviRgwyqJt9-105">
          <mxGeometry relative="1" as="geometry" />
        </mxCell>
        <mxCell id="q0F40TtUohviRgwyqJt9-14" value="DEAN" style="whiteSpace=wrap;html=1;rounded=0;" vertex="1" parent="1">
          <mxGeometry x="568.5" y="730" width="70" height="30" as="geometry" />
        </mxCell>
        <mxCell id="q0F40TtUohviRgwyqJt9-15" style="edgeStyle=none;rounded=0;orthogonalLoop=1;jettySize=auto;html=1;entryX=0.5;entryY=0;entryDx=0;entryDy=0;elbow=vertical;endArrow=none;startFill=0;exitX=0.582;exitY=1.003;exitDx=0;exitDy=0;exitPerimeter=0;" edge="1" parent="1" source="q0F40TtUohviRgwyqJt9-17" target="q0F40TtUohviRgwyqJt9-47">
          <mxGeometry relative="1" as="geometry">
            <mxPoint x="340" y="450" as="sourcePoint" />
          </mxGeometry>
        </mxCell>
        <mxCell id="q0F40TtUohviRgwyqJt9-16" value="1" style="edgeLabel;html=1;align=center;verticalAlign=middle;resizable=0;points=[];" vertex="1" connectable="0" parent="q0F40TtUohviRgwyqJt9-15">
          <mxGeometry x="-0.8159" y="5" relative="1" as="geometry">
            <mxPoint x="-6" y="10" as="offset" />
          </mxGeometry>
        </mxCell>
        <mxCell id="q0F40TtUohviRgwyqJt9-17" value="LECTURER" style="whiteSpace=wrap;html=1;rounded=0;" vertex="1" parent="1">
          <mxGeometry x="223.5" y="416.8" width="85" height="30" as="geometry" />
        </mxCell>
        <mxCell id="q0F40TtUohviRgwyqJt9-18" value="TECH_OFFICER" style="whiteSpace=wrap;html=1;rounded=0;" vertex="1" parent="1">
          <mxGeometry x="700" y="1043.76" width="110" height="27.5" as="geometry" />
        </mxCell>
        <mxCell id="q0F40TtUohviRgwyqJt9-19" style="edgeStyle=none;rounded=0;orthogonalLoop=1;jettySize=auto;html=1;entryX=0.5;entryY=1;entryDx=0;entryDy=0;elbow=vertical;endArrow=none;startFill=0;" edge="1" parent="1" source="q0F40TtUohviRgwyqJt9-20" target="q0F40TtUohviRgwyqJt9-47">
          <mxGeometry relative="1" as="geometry" />
        </mxCell>
        <mxCell id="q0F40TtUohviRgwyqJt9-20" value="COURSE" style="rounded=0;whiteSpace=wrap;html=1;" vertex="1" parent="1">
          <mxGeometry x="189" y="1011.35" width="100" height="40" as="geometry" />
        </mxCell>
        <mxCell id="q0F40TtUohviRgwyqJt9-21" style="edgeStyle=none;rounded=0;orthogonalLoop=1;jettySize=auto;html=1;endArrow=none;startFill=0;" edge="1" parent="1" source="q0F40TtUohviRgwyqJt9-22" target="q0F40TtUohviRgwyqJt9-20">
          <mxGeometry relative="1" as="geometry" />
        </mxCell>
        <mxCell id="q0F40TtUohviRgwyqJt9-22" value="&lt;u&gt;C_code&lt;/u&gt;" style="ellipse;whiteSpace=wrap;html=1;align=center;" vertex="1" parent="1">
          <mxGeometry x="104" y="950" width="70" height="30" as="geometry" />
        </mxCell>
        <mxCell id="q0F40TtUohviRgwyqJt9-23" style="edgeStyle=none;rounded=0;orthogonalLoop=1;jettySize=auto;html=1;entryX=0.143;entryY=0.999;entryDx=0;entryDy=0;endArrow=none;startFill=0;entryPerimeter=0;" edge="1" parent="1" source="q0F40TtUohviRgwyqJt9-24" target="q0F40TtUohviRgwyqJt9-20">
          <mxGeometry relative="1" as="geometry" />
        </mxCell>
        <mxCell id="q0F40TtUohviRgwyqJt9-24" value="C_name" style="ellipse;whiteSpace=wrap;html=1;align=center;" vertex="1" parent="1">
          <mxGeometry x="117.5" y="1115.69" width="70" height="30" as="geometry" />
        </mxCell>
        <mxCell id="q0F40TtUohviRgwyqJt9-25" style="edgeStyle=none;rounded=0;orthogonalLoop=1;jettySize=auto;html=1;entryX=0.75;entryY=1;entryDx=0;entryDy=0;endArrow=none;startFill=0;" edge="1" parent="1" source="q0F40TtUohviRgwyqJt9-26" target="q0F40TtUohviRgwyqJt9-20">
          <mxGeometry relative="1" as="geometry" />
        </mxCell>
        <mxCell id="q0F40TtUohviRgwyqJt9-26" value="Credit" style="ellipse;whiteSpace=wrap;html=1;align=center;" vertex="1" parent="1">
          <mxGeometry x="240" y="1110.69" width="70" height="30" as="geometry" />
        </mxCell>
        <mxCell id="q0F40TtUohviRgwyqJt9-27" value="MEDICAL" style="rounded=0;whiteSpace=wrap;html=1;" vertex="1" parent="1">
          <mxGeometry x="-1013.25" y="795.87" width="100" height="40" as="geometry" />
        </mxCell>
        <mxCell id="q0F40TtUohviRgwyqJt9-28" style="edgeStyle=none;rounded=0;orthogonalLoop=1;jettySize=auto;html=1;endArrow=none;startFill=0;" edge="1" parent="1" source="q0F40TtUohviRgwyqJt9-29" target="q0F40TtUohviRgwyqJt9-27">
          <mxGeometry relative="1" as="geometry" />
        </mxCell>
        <mxCell id="q0F40TtUohviRgwyqJt9-29" value="&lt;u&gt;Medical_id&lt;/u&gt;" style="ellipse;whiteSpace=wrap;html=1;align=center;" vertex="1" parent="1">
          <mxGeometry x="-1118.25" y="755.87" width="70" height="30" as="geometry" />
        </mxCell>
        <mxCell id="q0F40TtUohviRgwyqJt9-30" style="edgeStyle=none;rounded=0;orthogonalLoop=1;jettySize=auto;html=1;entryX=0;entryY=0.5;entryDx=0;entryDy=0;endArrow=none;startFill=0;" edge="1" parent="1" source="q0F40TtUohviRgwyqJt9-31" target="q0F40TtUohviRgwyqJt9-27">
          <mxGeometry relative="1" as="geometry" />
        </mxCell>
        <mxCell id="q0F40TtUohviRgwyqJt9-31" value="Date_submitted" style="ellipse;whiteSpace=wrap;html=1;align=center;" vertex="1" parent="1">
          <mxGeometry x="-1148.25" y="805.87" width="100" height="30" as="geometry" />
        </mxCell>
        <mxCell id="q0F40TtUohviRgwyqJt9-32" style="edgeStyle=none;rounded=0;orthogonalLoop=1;jettySize=auto;html=1;entryX=0.853;entryY=1.013;entryDx=0;entryDy=0;entryPerimeter=0;endArrow=none;startFill=0;" edge="1" parent="1" source="q0F40TtUohviRgwyqJt9-33" target="q0F40TtUohviRgwyqJt9-27">
          <mxGeometry relative="1" as="geometry" />
        </mxCell>
        <mxCell id="q0F40TtUohviRgwyqJt9-33" value="Status" style="ellipse;whiteSpace=wrap;html=1;align=center;" vertex="1" parent="1">
          <mxGeometry x="-966.25" y="875.87" width="66.25" height="34.13" as="geometry" />
        </mxCell>
        <mxCell id="q0F40TtUohviRgwyqJt9-34" value="ATTENDANCE" style="shape=ext;margin=3;double=1;whiteSpace=wrap;html=1;align=center;" vertex="1" parent="1">
          <mxGeometry x="-824" y="1100.73" width="100" height="40" as="geometry" />
        </mxCell>
        <mxCell id="q0F40TtUohviRgwyqJt9-35" value="MARK" style="shape=ext;margin=3;double=1;whiteSpace=wrap;html=1;align=center;" vertex="1" parent="1">
          <mxGeometry x="-290.5" y="707.5" width="129" height="40" as="geometry" />
        </mxCell>
        <mxCell id="q0F40TtUohviRgwyqJt9-36" style="edgeStyle=none;rounded=0;orthogonalLoop=1;jettySize=auto;html=1;entryX=0;entryY=1;entryDx=0;entryDy=0;endArrow=none;startFill=0;" edge="1" parent="1" source="q0F40TtUohviRgwyqJt9-37" target="q0F40TtUohviRgwyqJt9-35">
          <mxGeometry relative="1" as="geometry">
            <mxPoint x="-374.5000000000002" y="748.94" as="targetPoint" />
          </mxGeometry>
        </mxCell>
        <mxCell id="q0F40TtUohviRgwyqJt9-37" value="Marks" style="ellipse;whiteSpace=wrap;html=1;align=center;" vertex="1" parent="1">
          <mxGeometry x="-408.5" y="772.5" width="70" height="35" as="geometry" />
        </mxCell>
        <mxCell id="q0F40TtUohviRgwyqJt9-38" style="edgeStyle=none;rounded=0;orthogonalLoop=1;jettySize=auto;html=1;entryX=0.5;entryY=0;entryDx=0;entryDy=0;endArrow=none;startFill=0;" edge="1" parent="1" source="q0F40TtUohviRgwyqJt9-40" target="q0F40TtUohviRgwyqJt9-20">
          <mxGeometry relative="1" as="geometry" />
        </mxCell>
        <mxCell id="q0F40TtUohviRgwyqJt9-39" value="M" style="edgeLabel;html=1;align=center;verticalAlign=middle;resizable=0;points=[];" vertex="1" connectable="0" parent="q0F40TtUohviRgwyqJt9-38">
          <mxGeometry x="0.4484" y="-1" relative="1" as="geometry">
            <mxPoint x="19" y="26" as="offset" />
          </mxGeometry>
        </mxCell>
        <mxCell id="q0F40TtUohviRgwyqJt9-40" value="ENROLLS_IN" style="rhombus;whiteSpace=wrap;html=1;" vertex="1" parent="1">
          <mxGeometry x="-18.75" y="695" width="132.5" height="60" as="geometry" />
        </mxCell>
        <mxCell id="q0F40TtUohviRgwyqJt9-41" style="edgeStyle=none;rounded=0;orthogonalLoop=1;jettySize=auto;html=1;endArrow=none;startFill=0;" edge="1" parent="1" source="q0F40TtUohviRgwyqJt9-42" target="q0F40TtUohviRgwyqJt9-40">
          <mxGeometry relative="1" as="geometry" />
        </mxCell>
        <mxCell id="q0F40TtUohviRgwyqJt9-42" value="Academic_yr" style="ellipse;whiteSpace=wrap;html=1;align=center;" vertex="1" parent="1">
          <mxGeometry x="100" y="765" width="90" height="35" as="geometry" />
        </mxCell>
        <mxCell id="q0F40TtUohviRgwyqJt9-43" value="Sem" style="ellipse;whiteSpace=wrap;html=1;align=center;" vertex="1" parent="1">
          <mxGeometry x="150" y="682.5" width="40" height="20" as="geometry" />
        </mxCell>
        <mxCell id="q0F40TtUohviRgwyqJt9-44" style="edgeStyle=none;rounded=0;orthogonalLoop=1;jettySize=auto;html=1;endArrow=none;startFill=0;" edge="1" parent="1" source="q0F40TtUohviRgwyqJt9-43">
          <mxGeometry relative="1" as="geometry">
            <mxPoint x="80" y="710" as="targetPoint" />
          </mxGeometry>
        </mxCell>
        <mxCell id="q0F40TtUohviRgwyqJt9-45" value="Status" style="ellipse;whiteSpace=wrap;html=1;align=center;" vertex="1" parent="1">
          <mxGeometry x="-114.5" y="650" width="70" height="32.5" as="geometry" />
        </mxCell>
        <mxCell id="q0F40TtUohviRgwyqJt9-46" style="edgeStyle=none;rounded=0;orthogonalLoop=1;jettySize=auto;html=1;entryX=0.325;entryY=0.171;entryDx=0;entryDy=0;entryPerimeter=0;endArrow=none;startFill=0;" edge="1" parent="1" source="q0F40TtUohviRgwyqJt9-45" target="q0F40TtUohviRgwyqJt9-40">
          <mxGeometry relative="1" as="geometry" />
        </mxCell>
        <mxCell id="q0F40TtUohviRgwyqJt9-47" value="TEACHES" style="rhombus;whiteSpace=wrap;html=1;" vertex="1" parent="1">
          <mxGeometry x="249.84" y="765" width="112.5" height="50" as="geometry" />
        </mxCell>
        <mxCell id="q0F40TtUohviRgwyqJt9-48" style="edgeStyle=none;rounded=0;orthogonalLoop=1;jettySize=auto;html=1;entryX=0.25;entryY=0;entryDx=0;entryDy=0;elbow=vertical;endArrow=none;startFill=0;exitX=0;exitY=0.5;exitDx=0;exitDy=0;" edge="1" parent="1" source="q0F40TtUohviRgwyqJt9-50" target="q0F40TtUohviRgwyqJt9-27">
          <mxGeometry relative="1" as="geometry" />
        </mxCell>
        <mxCell id="q0F40TtUohviRgwyqJt9-49" value="M" style="edgeLabel;html=1;align=center;verticalAlign=middle;resizable=0;points=[];" vertex="1" connectable="0" parent="q0F40TtUohviRgwyqJt9-48">
          <mxGeometry x="0.5698" y="-3" relative="1" as="geometry">
            <mxPoint x="-2" y="7" as="offset" />
          </mxGeometry>
        </mxCell>
        <mxCell id="q0F40TtUohviRgwyqJt9-50" value="SUBMITS" style="rhombus;whiteSpace=wrap;html=1;rounded=0;" vertex="1" parent="1">
          <mxGeometry x="-942.75" y="634.13" width="121" height="55" as="geometry" />
        </mxCell>
        <mxCell id="q0F40TtUohviRgwyqJt9-51" style="edgeStyle=none;rounded=0;orthogonalLoop=1;jettySize=auto;html=1;entryX=0.5;entryY=0;entryDx=0;entryDy=0;elbow=vertical;endArrow=none;startFill=0;exitX=0.5;exitY=1;exitDx=0;exitDy=0;" edge="1" parent="1">
          <mxGeometry relative="1" as="geometry">
            <mxPoint x="-775.12" y="1100.73" as="targetPoint" />
            <mxPoint x="-772.87" y="850.87" as="sourcePoint" />
          </mxGeometry>
        </mxCell>
        <mxCell id="q0F40TtUohviRgwyqJt9-52" value="HAS" style="shape=rhombus;double=1;perimeter=rhombusPerimeter;whiteSpace=wrap;html=1;align=center;" vertex="1" parent="1">
          <mxGeometry x="-821.75" y="805.87" width="100" height="45" as="geometry" />
        </mxCell>
        <mxCell id="q0F40TtUohviRgwyqJt9-55" value="Dpt name" style="ellipse;whiteSpace=wrap;html=1;align=center;" vertex="1" parent="1">
          <mxGeometry x="149.99999999999997" y="516.9799999999999" width="63.5" height="30" as="geometry" />
        </mxCell>
        <mxCell id="q0F40TtUohviRgwyqJt9-56" style="rounded=0;orthogonalLoop=1;jettySize=auto;html=1;entryX=0.147;entryY=1.048;entryDx=0;entryDy=0;entryPerimeter=0;endArrow=none;endFill=0;" edge="1" parent="1" source="q0F40TtUohviRgwyqJt9-55" target="q0F40TtUohviRgwyqJt9-17">
          <mxGeometry relative="1" as="geometry" />
        </mxCell>
        <mxCell id="q0F40TtUohviRgwyqJt9-57" style="edgeStyle=none;rounded=0;orthogonalLoop=1;jettySize=auto;html=1;entryX=0;entryY=0;entryDx=0;entryDy=0;endArrow=none;endFill=0;" edge="1" parent="1" source="q0F40TtUohviRgwyqJt9-58" target="q0F40TtUohviRgwyqJt9-11">
          <mxGeometry relative="1" as="geometry" />
        </mxCell>
        <mxCell id="q0F40TtUohviRgwyqJt9-58" value="Admin_id" style="ellipse;whiteSpace=wrap;html=1;align=center;fontStyle=4" vertex="1" parent="1">
          <mxGeometry x="426.25" y="1220" width="65" height="30" as="geometry" />
        </mxCell>
        <mxCell id="q0F40TtUohviRgwyqJt9-59" style="edgeStyle=none;rounded=0;orthogonalLoop=1;jettySize=auto;html=1;entryX=0.25;entryY=1;entryDx=0;entryDy=0;endArrow=none;endFill=0;" edge="1" parent="1" source="q0F40TtUohviRgwyqJt9-60" target="q0F40TtUohviRgwyqJt9-14">
          <mxGeometry relative="1" as="geometry" />
        </mxCell>
        <mxCell id="q0F40TtUohviRgwyqJt9-60" value="Dean_id" style="ellipse;whiteSpace=wrap;html=1;align=center;fontStyle=4" vertex="1" parent="1">
          <mxGeometry x="506" y="805" width="65" height="30" as="geometry" />
        </mxCell>
        <mxCell id="q0F40TtUohviRgwyqJt9-61" style="edgeStyle=none;rounded=0;orthogonalLoop=1;jettySize=auto;html=1;endArrow=none;endFill=0;" edge="1" parent="1" source="q0F40TtUohviRgwyqJt9-62">
          <mxGeometry relative="1" as="geometry">
            <mxPoint x="741" y="1072.5300000000002" as="targetPoint" />
          </mxGeometry>
        </mxCell>
        <mxCell id="q0F40TtUohviRgwyqJt9-62" value="Techoff_id" style="ellipse;whiteSpace=wrap;html=1;align=center;fontStyle=4" vertex="1" parent="1">
          <mxGeometry x="690" y="1139.95" width="65" height="30" as="geometry" />
        </mxCell>
        <mxCell id="q0F40TtUohviRgwyqJt9-63" style="edgeStyle=none;rounded=0;orthogonalLoop=1;jettySize=auto;html=1;entryX=0;entryY=0.5;entryDx=0;entryDy=0;endArrow=none;endFill=0;" edge="1" parent="1" source="q0F40TtUohviRgwyqJt9-64" target="q0F40TtUohviRgwyqJt9-17">
          <mxGeometry relative="1" as="geometry" />
        </mxCell>
        <mxCell id="q0F40TtUohviRgwyqJt9-64" value="Lec_id" style="ellipse;whiteSpace=wrap;html=1;align=center;fontStyle=4" vertex="1" parent="1">
          <mxGeometry x="88.5" y="445.9" width="65" height="30" as="geometry" />
        </mxCell>
        <mxCell id="q0F40TtUohviRgwyqJt9-69" value="Dpt_name" style="ellipse;whiteSpace=wrap;html=1;align=center;fontStyle=0" vertex="1" parent="1">
          <mxGeometry x="-132.5" y="355" width="75" height="30" as="geometry" />
        </mxCell>
        <mxCell id="q0F40TtUohviRgwyqJt9-70" style="edgeStyle=none;rounded=0;orthogonalLoop=1;jettySize=auto;html=1;entryX=1;entryY=0;entryDx=0;entryDy=0;endArrow=none;endFill=0;" edge="1" parent="1" source="q0F40TtUohviRgwyqJt9-69" target="q0F40TtUohviRgwyqJt9-10">
          <mxGeometry relative="1" as="geometry" />
        </mxCell>
        <mxCell id="q0F40TtUohviRgwyqJt9-71" value="&lt;u&gt;St_id&lt;/u&gt;" style="ellipse;whiteSpace=wrap;html=1;align=center;" vertex="1" parent="1">
          <mxGeometry x="-414" y="370" width="70" height="30" as="geometry" />
        </mxCell>
        <mxCell id="q0F40TtUohviRgwyqJt9-72" value="Name" style="ellipse;whiteSpace=wrap;html=1;align=center;" vertex="1" parent="1">
          <mxGeometry x="-370" y="325" width="70" height="30" as="geometry" />
        </mxCell>
        <mxCell id="q0F40TtUohviRgwyqJt9-73" value="Nic" style="ellipse;whiteSpace=wrap;html=1;align=center;" vertex="1" parent="1">
          <mxGeometry x="-192" y="310" width="70" height="30" as="geometry" />
        </mxCell>
        <mxCell id="q0F40TtUohviRgwyqJt9-74" value="Email" style="ellipse;whiteSpace=wrap;html=1;align=center;" vertex="1" parent="1">
          <mxGeometry x="-282" y="300" width="70" height="30" as="geometry" />
        </mxCell>
        <mxCell id="q0F40TtUohviRgwyqJt9-75" value="Phone" style="ellipse;shape=doubleEllipse;margin=3;whiteSpace=wrap;html=1;align=center;" vertex="1" parent="1">
          <mxGeometry x="-102" y="410" width="60" height="30" as="geometry" />
        </mxCell>
        <mxCell id="q0F40TtUohviRgwyqJt9-76" style="rounded=0;orthogonalLoop=1;jettySize=auto;html=1;entryX=1;entryY=0.5;entryDx=0;entryDy=0;endArrow=none;startFill=0;" edge="1" parent="1" source="q0F40TtUohviRgwyqJt9-77" target="q0F40TtUohviRgwyqJt9-78">
          <mxGeometry relative="1" as="geometry" />
        </mxCell>
        <mxCell id="q0F40TtUohviRgwyqJt9-77" value="Address" style="ellipse;whiteSpace=wrap;html=1;align=center;" vertex="1" parent="1">
          <mxGeometry x="-431" y="435" width="70" height="30" as="geometry" />
        </mxCell>
        <mxCell id="q0F40TtUohviRgwyqJt9-78" value="No" style="ellipse;whiteSpace=wrap;html=1;align=center;" vertex="1" parent="1">
          <mxGeometry x="-491" y="410" width="40" height="20" as="geometry" />
        </mxCell>
        <mxCell id="q0F40TtUohviRgwyqJt9-79" value="City" style="ellipse;whiteSpace=wrap;html=1;align=center;" vertex="1" parent="1">
          <mxGeometry x="-501" y="450" width="40" height="20" as="geometry" />
        </mxCell>
        <mxCell id="q0F40TtUohviRgwyqJt9-80" value="Street" style="ellipse;whiteSpace=wrap;html=1;align=center;" vertex="1" parent="1">
          <mxGeometry x="-481" y="485" width="50" height="20" as="geometry" />
        </mxCell>
        <mxCell id="q0F40TtUohviRgwyqJt9-81" style="rounded=0;orthogonalLoop=1;jettySize=auto;html=1;entryX=0.931;entryY=0.245;entryDx=0;entryDy=0;entryPerimeter=0;endArrow=none;startFill=0;" edge="1" parent="1" source="q0F40TtUohviRgwyqJt9-77" target="q0F40TtUohviRgwyqJt9-79">
          <mxGeometry relative="1" as="geometry" />
        </mxCell>
        <mxCell id="q0F40TtUohviRgwyqJt9-82" style="rounded=0;orthogonalLoop=1;jettySize=auto;html=1;entryX=0.947;entryY=0.33;entryDx=0;entryDy=0;entryPerimeter=0;endArrow=none;startFill=0;" edge="1" parent="1" source="q0F40TtUohviRgwyqJt9-77" target="q0F40TtUohviRgwyqJt9-80">
          <mxGeometry relative="1" as="geometry" />
        </mxCell>
        <mxCell id="q0F40TtUohviRgwyqJt9-83" style="edgeStyle=none;rounded=0;orthogonalLoop=1;jettySize=auto;html=1;entryX=0.949;entryY=0.747;entryDx=0;entryDy=0;entryPerimeter=0;endArrow=none;endFill=0;" edge="1" parent="1" source="q0F40TtUohviRgwyqJt9-10" target="q0F40TtUohviRgwyqJt9-71">
          <mxGeometry relative="1" as="geometry" />
        </mxCell>
        <mxCell id="q0F40TtUohviRgwyqJt9-84" style="edgeStyle=none;rounded=0;orthogonalLoop=1;jettySize=auto;html=1;entryX=0.232;entryY=0.902;entryDx=0;entryDy=0;entryPerimeter=0;endArrow=none;endFill=0;" edge="1" parent="1" source="q0F40TtUohviRgwyqJt9-10" target="q0F40TtUohviRgwyqJt9-73">
          <mxGeometry relative="1" as="geometry" />
        </mxCell>
        <mxCell id="q0F40TtUohviRgwyqJt9-85" style="edgeStyle=none;rounded=0;orthogonalLoop=1;jettySize=auto;html=1;entryX=0.038;entryY=0.587;entryDx=0;entryDy=0;entryPerimeter=0;endArrow=none;endFill=0;" edge="1" parent="1" source="q0F40TtUohviRgwyqJt9-10" target="q0F40TtUohviRgwyqJt9-75">
          <mxGeometry relative="1" as="geometry" />
        </mxCell>
        <mxCell id="q0F40TtUohviRgwyqJt9-86" value="Name" style="ellipse;whiteSpace=wrap;html=1;align=center;" vertex="1" parent="1">
          <mxGeometry x="455.25" y="1369.98" width="70" height="30" as="geometry" />
        </mxCell>
        <mxCell id="q0F40TtUohviRgwyqJt9-87" style="edgeStyle=none;rounded=0;orthogonalLoop=1;jettySize=auto;html=1;entryX=1;entryY=1;entryDx=0;entryDy=0;endArrow=none;endFill=0;" edge="1" parent="1" source="q0F40TtUohviRgwyqJt9-88" target="q0F40TtUohviRgwyqJt9-11">
          <mxGeometry relative="1" as="geometry">
            <mxPoint x="636.25" y="1310.0000000000002" as="targetPoint" />
          </mxGeometry>
        </mxCell>
        <mxCell id="q0F40TtUohviRgwyqJt9-88" value="Nic" style="ellipse;whiteSpace=wrap;html=1;align=center;" vertex="1" parent="1">
          <mxGeometry x="725.25" y="1332.5" width="70" height="30" as="geometry" />
        </mxCell>
        <mxCell id="q0F40TtUohviRgwyqJt9-89" value="Email" style="ellipse;whiteSpace=wrap;html=1;align=center;" vertex="1" parent="1">
          <mxGeometry x="532.5" y="1395" width="70" height="30" as="geometry" />
        </mxCell>
        <mxCell id="q0F40TtUohviRgwyqJt9-90" style="edgeStyle=none;rounded=0;orthogonalLoop=1;jettySize=auto;html=1;entryX=1;entryY=0.75;entryDx=0;entryDy=0;endArrow=none;endFill=0;" edge="1" parent="1" source="q0F40TtUohviRgwyqJt9-91" target="q0F40TtUohviRgwyqJt9-11">
          <mxGeometry relative="1" as="geometry" />
        </mxCell>
        <mxCell id="q0F40TtUohviRgwyqJt9-91" value="Phone" style="ellipse;whiteSpace=wrap;html=1;align=center;" vertex="1" parent="1">
          <mxGeometry x="754.75" y="1270" width="60" height="30" as="geometry" />
        </mxCell>
        <mxCell id="q0F40TtUohviRgwyqJt9-92" style="rounded=0;orthogonalLoop=1;jettySize=auto;html=1;entryX=1;entryY=0.5;entryDx=0;entryDy=0;endArrow=none;startFill=0;" edge="1" parent="1" source="q0F40TtUohviRgwyqJt9-93" target="q0F40TtUohviRgwyqJt9-94">
          <mxGeometry relative="1" as="geometry" />
        </mxCell>
        <mxCell id="q0F40TtUohviRgwyqJt9-93" value="Address" style="ellipse;whiteSpace=wrap;html=1;align=center;" vertex="1" parent="1">
          <mxGeometry x="440.25" y="1292.5" width="70" height="30" as="geometry" />
        </mxCell>
        <mxCell id="q0F40TtUohviRgwyqJt9-94" value="No" style="ellipse;whiteSpace=wrap;html=1;align=center;" vertex="1" parent="1">
          <mxGeometry x="380.25" y="1267.5" width="40" height="20" as="geometry" />
        </mxCell>
        <mxCell id="q0F40TtUohviRgwyqJt9-95" value="City" style="ellipse;whiteSpace=wrap;html=1;align=center;" vertex="1" parent="1">
          <mxGeometry x="370.25" y="1307.5" width="40" height="20" as="geometry" />
        </mxCell>
        <mxCell id="q0F40TtUohviRgwyqJt9-96" value="Street" style="ellipse;whiteSpace=wrap;html=1;align=center;" vertex="1" parent="1">
          <mxGeometry x="390.25" y="1342.5" width="50" height="20" as="geometry" />
        </mxCell>
        <mxCell id="q0F40TtUohviRgwyqJt9-97" style="rounded=0;orthogonalLoop=1;jettySize=auto;html=1;entryX=0.931;entryY=0.245;entryDx=0;entryDy=0;entryPerimeter=0;endArrow=none;startFill=0;" edge="1" parent="1" source="q0F40TtUohviRgwyqJt9-93" target="q0F40TtUohviRgwyqJt9-95">
          <mxGeometry relative="1" as="geometry" />
        </mxCell>
        <mxCell id="q0F40TtUohviRgwyqJt9-98" style="rounded=0;orthogonalLoop=1;jettySize=auto;html=1;entryX=0.947;entryY=0.33;entryDx=0;entryDy=0;entryPerimeter=0;endArrow=none;startFill=0;" edge="1" parent="1" source="q0F40TtUohviRgwyqJt9-93" target="q0F40TtUohviRgwyqJt9-96">
          <mxGeometry relative="1" as="geometry" />
        </mxCell>
        <mxCell id="q0F40TtUohviRgwyqJt9-99" style="edgeStyle=none;rounded=0;orthogonalLoop=1;jettySize=auto;html=1;entryX=0.689;entryY=0.995;entryDx=0;entryDy=0;entryPerimeter=0;endArrow=none;endFill=0;" edge="1" parent="1" source="q0F40TtUohviRgwyqJt9-89" target="q0F40TtUohviRgwyqJt9-11">
          <mxGeometry relative="1" as="geometry" />
        </mxCell>
        <mxCell id="q0F40TtUohviRgwyqJt9-100" style="edgeStyle=none;rounded=0;orthogonalLoop=1;jettySize=auto;html=1;entryX=0.351;entryY=0.974;entryDx=0;entryDy=0;entryPerimeter=0;endArrow=none;endFill=0;" edge="1" parent="1" source="q0F40TtUohviRgwyqJt9-86" target="q0F40TtUohviRgwyqJt9-11">
          <mxGeometry relative="1" as="geometry" />
        </mxCell>
        <mxCell id="q0F40TtUohviRgwyqJt9-101" style="edgeStyle=none;rounded=0;orthogonalLoop=1;jettySize=auto;html=1;entryX=-0.001;entryY=0.91;entryDx=0;entryDy=0;entryPerimeter=0;endArrow=none;endFill=0;" edge="1" parent="1" source="q0F40TtUohviRgwyqJt9-93" target="q0F40TtUohviRgwyqJt9-11">
          <mxGeometry relative="1" as="geometry" />
        </mxCell>
        <mxCell id="q0F40TtUohviRgwyqJt9-102" style="edgeStyle=none;rounded=0;orthogonalLoop=1;jettySize=auto;html=1;entryX=1;entryY=0;entryDx=0;entryDy=0;endArrow=none;endFill=0;" edge="1" parent="1" source="q0F40TtUohviRgwyqJt9-103" target="q0F40TtUohviRgwyqJt9-11">
          <mxGeometry relative="1" as="geometry" />
        </mxCell>
        <mxCell id="q0F40TtUohviRgwyqJt9-103" value="Dpt_name" style="ellipse;whiteSpace=wrap;html=1;align=center;fontStyle=0" vertex="1" parent="1">
          <mxGeometry x="711.25" y="1220" width="75" height="30" as="geometry" />
        </mxCell>
        <mxCell id="q0F40TtUohviRgwyqJt9-104" value="Name" style="ellipse;whiteSpace=wrap;html=1;align=center;" vertex="1" parent="1">
          <mxGeometry x="638.5" y="660" width="70" height="30" as="geometry" />
        </mxCell>
        <mxCell id="q0F40TtUohviRgwyqJt9-105" value="Nic" style="ellipse;whiteSpace=wrap;html=1;align=center;" vertex="1" parent="1">
          <mxGeometry x="746" y="741.3800000000001" width="70" height="30" as="geometry" />
        </mxCell>
        <mxCell id="q0F40TtUohviRgwyqJt9-106" value="Email" style="ellipse;whiteSpace=wrap;html=1;align=center;" vertex="1" parent="1">
          <mxGeometry x="723" y="690" width="70" height="30" as="geometry" />
        </mxCell>
        <mxCell id="q0F40TtUohviRgwyqJt9-107" style="rounded=0;orthogonalLoop=1;jettySize=auto;html=1;entryX=0.546;entryY=0.005;entryDx=0;entryDy=0;endArrow=none;startFill=0;entryPerimeter=0;" edge="1" parent="1" source="q0F40TtUohviRgwyqJt9-108" target="q0F40TtUohviRgwyqJt9-109">
          <mxGeometry relative="1" as="geometry" />
        </mxCell>
        <mxCell id="q0F40TtUohviRgwyqJt9-108" value="Address" style="ellipse;whiteSpace=wrap;html=1;align=center;" vertex="1" parent="1">
          <mxGeometry x="603.5" y="810.0699999999999" width="70" height="30" as="geometry" />
        </mxCell>
        <mxCell id="q0F40TtUohviRgwyqJt9-109" value="No" style="ellipse;whiteSpace=wrap;html=1;align=center;" vertex="1" parent="1">
          <mxGeometry x="573.5" y="863.45" width="40" height="20" as="geometry" />
        </mxCell>
        <mxCell id="q0F40TtUohviRgwyqJt9-110" value="City" style="ellipse;whiteSpace=wrap;html=1;align=center;" vertex="1" parent="1">
          <mxGeometry x="626" y="866.69" width="40" height="20" as="geometry" />
        </mxCell>
        <mxCell id="q0F40TtUohviRgwyqJt9-111" value="Street" style="ellipse;whiteSpace=wrap;html=1;align=center;" vertex="1" parent="1">
          <mxGeometry x="666" y="855.0699999999999" width="50" height="20" as="geometry" />
        </mxCell>
        <mxCell id="q0F40TtUohviRgwyqJt9-112" style="rounded=0;orthogonalLoop=1;jettySize=auto;html=1;entryX=0.531;entryY=-0.007;entryDx=0;entryDy=0;entryPerimeter=0;endArrow=none;startFill=0;" edge="1" parent="1" source="q0F40TtUohviRgwyqJt9-108" target="q0F40TtUohviRgwyqJt9-110">
          <mxGeometry relative="1" as="geometry" />
        </mxCell>
        <mxCell id="q0F40TtUohviRgwyqJt9-113" style="rounded=0;orthogonalLoop=1;jettySize=auto;html=1;entryX=0.5;entryY=0;entryDx=0;entryDy=0;endArrow=none;startFill=0;" edge="1" parent="1" source="q0F40TtUohviRgwyqJt9-108" target="q0F40TtUohviRgwyqJt9-111">
          <mxGeometry relative="1" as="geometry" />
        </mxCell>
        <mxCell id="q0F40TtUohviRgwyqJt9-114" value="Phone" style="ellipse;whiteSpace=wrap;html=1;align=center;" vertex="1" parent="1">
          <mxGeometry x="706" y="795" width="70" height="30" as="geometry" />
        </mxCell>
        <mxCell id="q0F40TtUohviRgwyqJt9-115" style="edgeStyle=orthogonalEdgeStyle;rounded=0;orthogonalLoop=1;jettySize=auto;html=1;exitX=0.5;exitY=1;exitDx=0;exitDy=0;" edge="1" parent="1" source="q0F40TtUohviRgwyqJt9-105" target="q0F40TtUohviRgwyqJt9-105">
          <mxGeometry relative="1" as="geometry" />
        </mxCell>
        <mxCell id="q0F40TtUohviRgwyqJt9-116" style="edgeStyle=none;rounded=0;orthogonalLoop=1;jettySize=auto;html=1;entryX=0;entryY=0;entryDx=0;entryDy=0;endArrow=none;endFill=0;" edge="1" parent="1" source="q0F40TtUohviRgwyqJt9-14" target="q0F40TtUohviRgwyqJt9-114">
          <mxGeometry relative="1" as="geometry" />
        </mxCell>
        <mxCell id="q0F40TtUohviRgwyqJt9-117" style="edgeStyle=none;rounded=0;orthogonalLoop=1;jettySize=auto;html=1;entryX=0.363;entryY=1.016;entryDx=0;entryDy=0;entryPerimeter=0;endArrow=none;endFill=0;" edge="1" parent="1" source="q0F40TtUohviRgwyqJt9-14" target="q0F40TtUohviRgwyqJt9-104">
          <mxGeometry relative="1" as="geometry" />
        </mxCell>
        <mxCell id="q0F40TtUohviRgwyqJt9-118" style="edgeStyle=none;rounded=0;orthogonalLoop=1;jettySize=auto;html=1;entryX=0.021;entryY=0.62;entryDx=0;entryDy=0;entryPerimeter=0;endArrow=none;endFill=0;" edge="1" parent="1" source="q0F40TtUohviRgwyqJt9-14" target="q0F40TtUohviRgwyqJt9-106">
          <mxGeometry relative="1" as="geometry" />
        </mxCell>
        <mxCell id="q0F40TtUohviRgwyqJt9-119" style="edgeStyle=none;rounded=0;orthogonalLoop=1;jettySize=auto;html=1;entryX=0.996;entryY=0.066;entryDx=0;entryDy=0;endArrow=none;endFill=0;entryPerimeter=0;" edge="1" parent="1" source="q0F40TtUohviRgwyqJt9-120" target="q0F40TtUohviRgwyqJt9-17">
          <mxGeometry relative="1" as="geometry" />
        </mxCell>
        <mxCell id="q0F40TtUohviRgwyqJt9-120" value="Name" style="ellipse;whiteSpace=wrap;html=1;align=center;" vertex="1" parent="1">
          <mxGeometry x="363.5" y="352.92" width="70" height="30" as="geometry" />
        </mxCell>
        <mxCell id="q0F40TtUohviRgwyqJt9-121" value="Nic" style="ellipse;whiteSpace=wrap;html=1;align=center;" vertex="1" parent="1">
          <mxGeometry x="343.5" y="516.9799999999999" width="40" height="22.02" as="geometry" />
        </mxCell>
        <mxCell id="q0F40TtUohviRgwyqJt9-122" style="edgeStyle=none;rounded=0;orthogonalLoop=1;jettySize=auto;html=1;entryX=0.999;entryY=0.322;entryDx=0;entryDy=0;endArrow=none;endFill=0;entryPerimeter=0;" edge="1" parent="1" source="q0F40TtUohviRgwyqJt9-123" target="q0F40TtUohviRgwyqJt9-17">
          <mxGeometry relative="1" as="geometry" />
        </mxCell>
        <mxCell id="q0F40TtUohviRgwyqJt9-123" value="Email" style="ellipse;whiteSpace=wrap;html=1;align=center;" vertex="1" parent="1">
          <mxGeometry x="443.5" y="392.92" width="70" height="30" as="geometry" />
        </mxCell>
        <mxCell id="q0F40TtUohviRgwyqJt9-124" value="Phone" style="ellipse;shape=doubleEllipse;margin=3;whiteSpace=wrap;html=1;align=center;" vertex="1" parent="1">
          <mxGeometry x="453.5" y="445.90000000000003" width="60" height="30" as="geometry" />
        </mxCell>
        <mxCell id="q0F40TtUohviRgwyqJt9-125" style="rounded=0;orthogonalLoop=1;jettySize=auto;html=1;entryX=0.429;entryY=0.986;entryDx=0;entryDy=0;endArrow=none;startFill=0;entryPerimeter=0;" edge="1" parent="1" source="q0F40TtUohviRgwyqJt9-126" target="q0F40TtUohviRgwyqJt9-127">
          <mxGeometry relative="1" as="geometry">
            <mxPoint x="333.4999999999998" y="287.76000000000016" as="targetPoint" />
          </mxGeometry>
        </mxCell>
        <mxCell id="q0F40TtUohviRgwyqJt9-126" value="Address" style="ellipse;whiteSpace=wrap;html=1;align=center;" vertex="1" parent="1">
          <mxGeometry x="261.84000000000003" y="342.92" width="70" height="30" as="geometry" />
        </mxCell>
        <mxCell id="q0F40TtUohviRgwyqJt9-127" value="No" style="ellipse;whiteSpace=wrap;html=1;align=center;" vertex="1" parent="1">
          <mxGeometry x="313.5" y="272.92" width="40" height="20" as="geometry" />
        </mxCell>
        <mxCell id="q0F40TtUohviRgwyqJt9-128" value="City" style="ellipse;whiteSpace=wrap;html=1;align=center;" vertex="1" parent="1">
          <mxGeometry x="253.34000000000003" y="267.92" width="40" height="20" as="geometry" />
        </mxCell>
        <mxCell id="q0F40TtUohviRgwyqJt9-129" value="Street" style="ellipse;whiteSpace=wrap;html=1;align=center;" vertex="1" parent="1">
          <mxGeometry x="203.34000000000003" y="302.92" width="50" height="20" as="geometry" />
        </mxCell>
        <mxCell id="q0F40TtUohviRgwyqJt9-130" style="rounded=0;orthogonalLoop=1;jettySize=auto;html=1;entryX=0.545;entryY=1.001;entryDx=0;entryDy=0;entryPerimeter=0;endArrow=none;startFill=0;" edge="1" parent="1" source="q0F40TtUohviRgwyqJt9-126" target="q0F40TtUohviRgwyqJt9-128">
          <mxGeometry relative="1" as="geometry" />
        </mxCell>
        <mxCell id="q0F40TtUohviRgwyqJt9-131" style="rounded=0;orthogonalLoop=1;jettySize=auto;html=1;entryX=0.807;entryY=0.909;entryDx=0;entryDy=0;entryPerimeter=0;endArrow=none;startFill=0;" edge="1" parent="1" source="q0F40TtUohviRgwyqJt9-126" target="q0F40TtUohviRgwyqJt9-129">
          <mxGeometry relative="1" as="geometry" />
        </mxCell>
        <mxCell id="q0F40TtUohviRgwyqJt9-132" style="edgeStyle=none;rounded=0;orthogonalLoop=1;jettySize=auto;html=1;entryX=0.899;entryY=0.008;entryDx=0;entryDy=0;entryPerimeter=0;endArrow=none;endFill=0;" edge="1" parent="1" source="q0F40TtUohviRgwyqJt9-126" target="q0F40TtUohviRgwyqJt9-17">
          <mxGeometry relative="1" as="geometry" />
        </mxCell>
        <mxCell id="q0F40TtUohviRgwyqJt9-133" style="edgeStyle=none;rounded=0;orthogonalLoop=1;jettySize=auto;html=1;entryX=0.998;entryY=0.581;entryDx=0;entryDy=0;entryPerimeter=0;endArrow=none;endFill=0;" edge="1" parent="1" source="q0F40TtUohviRgwyqJt9-124" target="q0F40TtUohviRgwyqJt9-17">
          <mxGeometry relative="1" as="geometry" />
        </mxCell>
        <mxCell id="q0F40TtUohviRgwyqJt9-134" style="edgeStyle=none;rounded=0;orthogonalLoop=1;jettySize=auto;html=1;entryX=0.779;entryY=0.998;entryDx=0;entryDy=0;entryPerimeter=0;endArrow=none;endFill=0;" edge="1" parent="1" source="q0F40TtUohviRgwyqJt9-121" target="q0F40TtUohviRgwyqJt9-17">
          <mxGeometry relative="1" as="geometry" />
        </mxCell>
        <mxCell id="q0F40TtUohviRgwyqJt9-135" value="Name" style="ellipse;whiteSpace=wrap;html=1;align=center;" vertex="1" parent="1">
          <mxGeometry x="540" y="1019.8800000000001" width="70" height="30" as="geometry" />
        </mxCell>
        <mxCell id="q0F40TtUohviRgwyqJt9-136" value="Nic" style="ellipse;whiteSpace=wrap;html=1;align=center;" vertex="1" parent="1">
          <mxGeometry x="708.5" y="939.8800000000001" width="70" height="30" as="geometry" />
        </mxCell>
        <mxCell id="q0F40TtUohviRgwyqJt9-137" value="Email" style="ellipse;whiteSpace=wrap;html=1;align=center;" vertex="1" parent="1">
          <mxGeometry x="610" y="959.8800000000001" width="70" height="30" as="geometry" />
        </mxCell>
        <mxCell id="q0F40TtUohviRgwyqJt9-138" value="Phone" style="ellipse;shape=doubleEllipse;margin=3;whiteSpace=wrap;html=1;align=center;" vertex="1" parent="1">
          <mxGeometry x="800" y="969.8800000000001" width="60" height="30" as="geometry" />
        </mxCell>
        <mxCell id="q0F40TtUohviRgwyqJt9-139" style="rounded=0;orthogonalLoop=1;jettySize=auto;html=1;entryX=1;entryY=0.5;entryDx=0;entryDy=0;endArrow=none;startFill=0;" edge="1" parent="1" source="q0F40TtUohviRgwyqJt9-141" target="q0F40TtUohviRgwyqJt9-142">
          <mxGeometry relative="1" as="geometry" />
        </mxCell>
        <mxCell id="q0F40TtUohviRgwyqJt9-140" style="edgeStyle=none;rounded=0;orthogonalLoop=1;jettySize=auto;html=1;entryX=0;entryY=1;entryDx=0;entryDy=0;endArrow=none;endFill=0;" edge="1" parent="1" source="q0F40TtUohviRgwyqJt9-141" target="q0F40TtUohviRgwyqJt9-18">
          <mxGeometry relative="1" as="geometry" />
        </mxCell>
        <mxCell id="q0F40TtUohviRgwyqJt9-141" value="Address" style="ellipse;whiteSpace=wrap;html=1;align=center;" vertex="1" parent="1">
          <mxGeometry x="590" y="1131.5" width="70" height="30" as="geometry" />
        </mxCell>
        <mxCell id="q0F40TtUohviRgwyqJt9-142" value="No" style="ellipse;whiteSpace=wrap;html=1;align=center;" vertex="1" parent="1">
          <mxGeometry x="530" y="1106.5" width="40" height="20" as="geometry" />
        </mxCell>
        <mxCell id="q0F40TtUohviRgwyqJt9-143" value="City" style="ellipse;whiteSpace=wrap;html=1;align=center;" vertex="1" parent="1">
          <mxGeometry x="520" y="1146.5" width="40" height="20" as="geometry" />
        </mxCell>
        <mxCell id="q0F40TtUohviRgwyqJt9-144" value="Street" style="ellipse;whiteSpace=wrap;html=1;align=center;" vertex="1" parent="1">
          <mxGeometry x="540" y="1181.5" width="50" height="20" as="geometry" />
        </mxCell>
        <mxCell id="q0F40TtUohviRgwyqJt9-145" style="rounded=0;orthogonalLoop=1;jettySize=auto;html=1;entryX=0.931;entryY=0.245;entryDx=0;entryDy=0;entryPerimeter=0;endArrow=none;startFill=0;" edge="1" parent="1" source="q0F40TtUohviRgwyqJt9-141" target="q0F40TtUohviRgwyqJt9-143">
          <mxGeometry relative="1" as="geometry" />
        </mxCell>
        <mxCell id="q0F40TtUohviRgwyqJt9-146" style="rounded=0;orthogonalLoop=1;jettySize=auto;html=1;entryX=0.947;entryY=0.33;entryDx=0;entryDy=0;entryPerimeter=0;endArrow=none;startFill=0;" edge="1" parent="1" target="q0F40TtUohviRgwyqJt9-144">
          <mxGeometry relative="1" as="geometry">
            <mxPoint x="613" y="1160.5" as="sourcePoint" />
          </mxGeometry>
        </mxCell>
        <mxCell id="q0F40TtUohviRgwyqJt9-147" style="edgeStyle=none;rounded=0;orthogonalLoop=1;jettySize=auto;html=1;entryX=0;entryY=0.5;entryDx=0;entryDy=0;endArrow=none;endFill=0;" edge="1" parent="1" source="q0F40TtUohviRgwyqJt9-135" target="q0F40TtUohviRgwyqJt9-18">
          <mxGeometry relative="1" as="geometry" />
        </mxCell>
        <mxCell id="q0F40TtUohviRgwyqJt9-148" style="edgeStyle=none;rounded=0;orthogonalLoop=1;jettySize=auto;html=1;entryX=0.061;entryY=-0.009;entryDx=0;entryDy=0;entryPerimeter=0;endArrow=none;endFill=0;" edge="1" parent="1" source="q0F40TtUohviRgwyqJt9-137" target="q0F40TtUohviRgwyqJt9-18">
          <mxGeometry relative="1" as="geometry" />
        </mxCell>
        <mxCell id="q0F40TtUohviRgwyqJt9-149" style="edgeStyle=none;rounded=0;orthogonalLoop=1;jettySize=auto;html=1;entryX=0.382;entryY=-0.017;entryDx=0;entryDy=0;entryPerimeter=0;endArrow=none;endFill=0;" edge="1" parent="1" source="q0F40TtUohviRgwyqJt9-136" target="q0F40TtUohviRgwyqJt9-18">
          <mxGeometry relative="1" as="geometry" />
        </mxCell>
        <mxCell id="q0F40TtUohviRgwyqJt9-150" style="edgeStyle=none;rounded=0;orthogonalLoop=1;jettySize=auto;html=1;entryX=0.628;entryY=-0.001;entryDx=0;entryDy=0;entryPerimeter=0;endArrow=none;endFill=0;" edge="1" parent="1" source="q0F40TtUohviRgwyqJt9-138" target="q0F40TtUohviRgwyqJt9-18">
          <mxGeometry relative="1" as="geometry" />
        </mxCell>
        <mxCell id="q0F40TtUohviRgwyqJt9-151" value="Dob" style="ellipse;whiteSpace=wrap;html=1;align=center;" vertex="1" parent="1">
          <mxGeometry x="795" y="1129.8600000000001" width="70" height="30" as="geometry" />
        </mxCell>
        <mxCell id="q0F40TtUohviRgwyqJt9-152" style="edgeStyle=none;rounded=0;orthogonalLoop=1;jettySize=auto;html=1;entryX=0.705;entryY=1.058;entryDx=0;entryDy=0;entryPerimeter=0;endArrow=none;endFill=0;" edge="1" parent="1" source="q0F40TtUohviRgwyqJt9-151" target="q0F40TtUohviRgwyqJt9-18">
          <mxGeometry relative="1" as="geometry" />
        </mxCell>
        <mxCell id="q0F40TtUohviRgwyqJt9-153" style="edgeStyle=none;rounded=0;orthogonalLoop=1;jettySize=auto;html=1;entryX=1;entryY=0.75;entryDx=0;entryDy=0;endArrow=none;endFill=0;" edge="1" parent="1" source="q0F40TtUohviRgwyqJt9-154" target="q0F40TtUohviRgwyqJt9-10">
          <mxGeometry relative="1" as="geometry" />
        </mxCell>
        <mxCell id="q0F40TtUohviRgwyqJt9-154" value="Dob" style="ellipse;whiteSpace=wrap;html=1;align=center;fontStyle=0" vertex="1" parent="1">
          <mxGeometry x="-117" y="479.98" width="75" height="30" as="geometry" />
        </mxCell>
        <mxCell id="q0F40TtUohviRgwyqJt9-155" style="edgeStyle=none;rounded=0;orthogonalLoop=1;jettySize=auto;html=1;entryX=0.868;entryY=1;entryDx=0;entryDy=0;entryPerimeter=0;endArrow=none;endFill=0;" edge="1" parent="1" source="q0F40TtUohviRgwyqJt9-156" target="q0F40TtUohviRgwyqJt9-11">
          <mxGeometry relative="1" as="geometry">
            <mxPoint x="626.25" y="1310" as="targetPoint" />
          </mxGeometry>
        </mxCell>
        <mxCell id="q0F40TtUohviRgwyqJt9-156" value="Dob" style="ellipse;whiteSpace=wrap;html=1;align=center;fontStyle=0" vertex="1" parent="1">
          <mxGeometry x="636.75" y="1396.69" width="75" height="30" as="geometry" />
        </mxCell>
        <mxCell id="q0F40TtUohviRgwyqJt9-157" style="edgeStyle=none;rounded=0;orthogonalLoop=1;jettySize=auto;html=1;endArrow=none;endFill=0;" edge="1" parent="1" source="q0F40TtUohviRgwyqJt9-158" target="q0F40TtUohviRgwyqJt9-14">
          <mxGeometry relative="1" as="geometry" />
        </mxCell>
        <mxCell id="q0F40TtUohviRgwyqJt9-158" value="Dob" style="ellipse;whiteSpace=wrap;html=1;align=center;fontStyle=0" vertex="1" parent="1">
          <mxGeometry x="551" y="620" width="75" height="30" as="geometry" />
        </mxCell>
        <mxCell id="q0F40TtUohviRgwyqJt9-159" style="edgeStyle=none;rounded=0;orthogonalLoop=1;jettySize=auto;html=1;entryX=0.997;entryY=0.984;entryDx=0;entryDy=0;endArrow=none;endFill=0;entryPerimeter=0;" edge="1" parent="1" source="q0F40TtUohviRgwyqJt9-160" target="q0F40TtUohviRgwyqJt9-17">
          <mxGeometry relative="1" as="geometry" />
        </mxCell>
        <mxCell id="q0F40TtUohviRgwyqJt9-160" value="Education_lvl" style="ellipse;whiteSpace=wrap;html=1;align=center;" vertex="1" parent="1">
          <mxGeometry x="393.5" y="489.54" width="90" height="30" as="geometry" />
        </mxCell>
        <mxCell id="q0F40TtUohviRgwyqJt9-162" style="rounded=0;orthogonalLoop=1;jettySize=auto;html=1;entryX=0.5;entryY=1;entryDx=0;entryDy=0;endArrow=none;endFill=0;" edge="1" parent="1" source="q0F40TtUohviRgwyqJt9-163" target="q0F40TtUohviRgwyqJt9-40">
          <mxGeometry relative="1" as="geometry" />
        </mxCell>
        <mxCell id="q0F40TtUohviRgwyqJt9-163" value="Level" style="ellipse;whiteSpace=wrap;html=1;align=center;" vertex="1" parent="1">
          <mxGeometry x="18.5" y="812.12" width="70" height="32.5" as="geometry" />
        </mxCell>
        <mxCell id="q0F40TtUohviRgwyqJt9-164" value="Status" style="ellipse;whiteSpace=wrap;html=1;align=center;" vertex="1" parent="1">
          <mxGeometry x="-758" y="1180.69" width="58" height="29.31" as="geometry" />
        </mxCell>
        <mxCell id="q0F40TtUohviRgwyqJt9-165" style="rounded=0;orthogonalLoop=1;jettySize=auto;html=1;entryX=0.608;entryY=1.02;entryDx=0;entryDy=0;entryPerimeter=0;endArrow=none;endFill=0;" edge="1" parent="1" source="q0F40TtUohviRgwyqJt9-164" target="q0F40TtUohviRgwyqJt9-34">
          <mxGeometry relative="1" as="geometry" />
        </mxCell>
        <mxCell id="q0F40TtUohviRgwyqJt9-168" value="SESSION" style="shape=ext;margin=3;double=1;whiteSpace=wrap;html=1;align=center;" vertex="1" parent="1">
          <mxGeometry x="-330.97" y="1140.6900000000003" width="100" height="40" as="geometry" />
        </mxCell>
        <mxCell id="q0F40TtUohviRgwyqJt9-169" style="edgeStyle=none;rounded=0;orthogonalLoop=1;jettySize=auto;html=1;endArrow=none;startFill=0;" edge="1" parent="1" source="q0F40TtUohviRgwyqJt9-170" target="q0F40TtUohviRgwyqJt9-168">
          <mxGeometry relative="1" as="geometry" />
        </mxCell>
        <mxCell id="q0F40TtUohviRgwyqJt9-170" value="&lt;u&gt;Session_id&lt;/u&gt;" style="ellipse;whiteSpace=wrap;html=1;align=center;" vertex="1" parent="1">
          <mxGeometry x="-404.97" y="1085.6900000000003" width="90" height="30" as="geometry" />
        </mxCell>
        <mxCell id="q0F40TtUohviRgwyqJt9-173" style="edgeStyle=none;rounded=0;orthogonalLoop=1;jettySize=auto;html=1;endArrow=none;startFill=0;" edge="1" parent="1" source="q0F40TtUohviRgwyqJt9-174" target="q0F40TtUohviRgwyqJt9-168">
          <mxGeometry relative="1" as="geometry" />
        </mxCell>
        <mxCell id="q0F40TtUohviRgwyqJt9-174" value="Type" style="ellipse;whiteSpace=wrap;html=1;align=center;" vertex="1" parent="1">
          <mxGeometry x="-187" y="1150.69" width="57" height="29.31" as="geometry" />
        </mxCell>
        <mxCell id="q0F40TtUohviRgwyqJt9-175" style="edgeStyle=none;rounded=0;orthogonalLoop=1;jettySize=auto;html=1;endArrow=none;endFill=0;" edge="1" parent="1" source="q0F40TtUohviRgwyqJt9-177">
          <mxGeometry relative="1" as="geometry">
            <mxPoint x="189" y="1031" as="targetPoint" />
          </mxGeometry>
        </mxCell>
        <mxCell id="q0F40TtUohviRgwyqJt9-176" value="1" style="edgeLabel;html=1;align=center;verticalAlign=middle;resizable=0;points=[];" vertex="1" connectable="0" parent="q0F40TtUohviRgwyqJt9-175">
          <mxGeometry x="0.7948" y="1" relative="1" as="geometry">
            <mxPoint as="offset" />
          </mxGeometry>
        </mxCell>
        <mxCell id="q0F40TtUohviRgwyqJt9-177" value="HAS" style="shape=rhombus;double=1;perimeter=rhombusPerimeter;whiteSpace=wrap;html=1;align=center;" vertex="1" parent="1">
          <mxGeometry x="-147.54" y="1000" width="81" height="51" as="geometry" />
        </mxCell>
        <mxCell id="q0F40TtUohviRgwyqJt9-178" style="edgeStyle=none;rounded=0;orthogonalLoop=1;jettySize=auto;html=1;endArrow=none;endFill=0;entryX=1;entryY=0;entryDx=0;entryDy=0;exitX=0;exitY=0.5;exitDx=0;exitDy=0;" edge="1" parent="1" source="q0F40TtUohviRgwyqJt9-177" target="q0F40TtUohviRgwyqJt9-168">
          <mxGeometry relative="1" as="geometry">
            <mxPoint x="-36.53999999999999" y="1171" as="targetPoint" />
          </mxGeometry>
        </mxCell>
        <mxCell id="q0F40TtUohviRgwyqJt9-179" value="M" style="edgeLabel;html=1;align=center;verticalAlign=middle;resizable=0;points=[];" vertex="1" connectable="0" parent="q0F40TtUohviRgwyqJt9-178">
          <mxGeometry x="0.6253" y="-2" relative="1" as="geometry">
            <mxPoint as="offset" />
          </mxGeometry>
        </mxCell>
        <mxCell id="q0F40TtUohviRgwyqJt9-182" style="edgeStyle=none;rounded=0;orthogonalLoop=1;jettySize=auto;html=1;entryX=0;entryY=0.5;entryDx=0;entryDy=0;endArrow=none;endFill=0;exitX=1;exitY=0.5;exitDx=0;exitDy=0;" edge="1" parent="1" source="q0F40TtUohviRgwyqJt9-186" target="q0F40TtUohviRgwyqJt9-168">
          <mxGeometry relative="1" as="geometry" />
        </mxCell>
        <mxCell id="q0F40TtUohviRgwyqJt9-183" value="1" style="edgeLabel;html=1;align=center;verticalAlign=middle;resizable=0;points=[];" vertex="1" connectable="0" parent="q0F40TtUohviRgwyqJt9-182">
          <mxGeometry x="0.5468" y="3" relative="1" as="geometry">
            <mxPoint as="offset" />
          </mxGeometry>
        </mxCell>
        <mxCell id="q0F40TtUohviRgwyqJt9-184" style="edgeStyle=none;rounded=0;orthogonalLoop=1;jettySize=auto;html=1;entryX=1;entryY=0.5;entryDx=0;entryDy=0;endArrow=none;endFill=0;" edge="1" parent="1" source="q0F40TtUohviRgwyqJt9-186" target="q0F40TtUohviRgwyqJt9-34">
          <mxGeometry relative="1" as="geometry" />
        </mxCell>
        <mxCell id="q0F40TtUohviRgwyqJt9-185" value="M" style="edgeLabel;html=1;align=center;verticalAlign=middle;resizable=0;points=[];" vertex="1" connectable="0" parent="q0F40TtUohviRgwyqJt9-184">
          <mxGeometry x="0.5557" y="1" relative="1" as="geometry">
            <mxPoint x="1" as="offset" />
          </mxGeometry>
        </mxCell>
        <mxCell id="q0F40TtUohviRgwyqJt9-186" value="HAS" style="shape=rhombus;double=1;perimeter=rhombusPerimeter;whiteSpace=wrap;html=1;align=center;" vertex="1" parent="1">
          <mxGeometry x="-580.5" y="1115.69" width="81" height="51" as="geometry" />
        </mxCell>
        <mxCell id="q0F40TtUohviRgwyqJt9-188" style="edgeStyle=none;rounded=0;orthogonalLoop=1;jettySize=auto;html=1;endArrow=none;endFill=0;" edge="1" parent="1" source="q0F40TtUohviRgwyqJt9-189" target="q0F40TtUohviRgwyqJt9-37">
          <mxGeometry relative="1" as="geometry" />
        </mxCell>
        <mxCell id="q0F40TtUohviRgwyqJt9-189" value="Quiz01" style="ellipse;whiteSpace=wrap;html=1;align=center;" vertex="1" parent="1">
          <mxGeometry x="-620" y="795" width="60" height="25" as="geometry" />
        </mxCell>
        <mxCell id="q0F40TtUohviRgwyqJt9-190" value="Quiz02" style="ellipse;whiteSpace=wrap;html=1;align=center;" vertex="1" parent="1">
          <mxGeometry x="-600" y="830.07" width="60" height="25" as="geometry" />
        </mxCell>
        <mxCell id="q0F40TtUohviRgwyqJt9-191" value="Quiz03" style="ellipse;whiteSpace=wrap;html=1;align=center;" vertex="1" parent="1">
          <mxGeometry x="-540" y="852.57" width="60" height="25" as="geometry" />
        </mxCell>
        <mxCell id="q0F40TtUohviRgwyqJt9-192" value="Assignment" style="ellipse;whiteSpace=wrap;html=1;align=center;" vertex="1" parent="1">
          <mxGeometry x="-476.72" y="870.5" width="71.75" height="25" as="geometry" />
        </mxCell>
        <mxCell id="q0F40TtUohviRgwyqJt9-193" style="edgeStyle=none;rounded=0;orthogonalLoop=1;jettySize=auto;html=1;entryX=0.568;entryY=0.994;entryDx=0;entryDy=0;endArrow=none;endFill=0;entryPerimeter=0;" edge="1" parent="1" source="q0F40TtUohviRgwyqJt9-194" target="q0F40TtUohviRgwyqJt9-37">
          <mxGeometry relative="1" as="geometry" />
        </mxCell>
        <mxCell id="q0F40TtUohviRgwyqJt9-194" value="Mid_T" style="ellipse;whiteSpace=wrap;html=1;align=center;" vertex="1" parent="1">
          <mxGeometry x="-386.97" y="875.07" width="41" height="25" as="geometry" />
        </mxCell>
        <mxCell id="q0F40TtUohviRgwyqJt9-195" style="edgeStyle=none;rounded=0;orthogonalLoop=1;jettySize=auto;html=1;entryX=0.975;entryY=0.657;entryDx=0;entryDy=0;endArrow=none;endFill=0;entryPerimeter=0;" edge="1" parent="1" source="q0F40TtUohviRgwyqJt9-196" target="q0F40TtUohviRgwyqJt9-37">
          <mxGeometry relative="1" as="geometry" />
        </mxCell>
        <mxCell id="q0F40TtUohviRgwyqJt9-196" value="Final_T" style="ellipse;whiteSpace=wrap;html=1;align=center;" vertex="1" parent="1">
          <mxGeometry x="-282" y="868.37" width="45.5" height="25" as="geometry" />
        </mxCell>
        <mxCell id="q0F40TtUohviRgwyqJt9-197" style="edgeStyle=none;rounded=0;orthogonalLoop=1;jettySize=auto;html=1;endArrow=none;endFill=0;entryX=0.091;entryY=0.786;entryDx=0;entryDy=0;entryPerimeter=0;" edge="1" parent="1" source="q0F40TtUohviRgwyqJt9-190" target="q0F40TtUohviRgwyqJt9-37">
          <mxGeometry relative="1" as="geometry">
            <mxPoint x="-395.5" y="806.5" as="targetPoint" />
          </mxGeometry>
        </mxCell>
        <mxCell id="q0F40TtUohviRgwyqJt9-198" style="edgeStyle=none;rounded=0;orthogonalLoop=1;jettySize=auto;html=1;entryX=0.216;entryY=0.901;entryDx=0;entryDy=0;entryPerimeter=0;endArrow=none;endFill=0;" edge="1" parent="1" source="q0F40TtUohviRgwyqJt9-191" target="q0F40TtUohviRgwyqJt9-37">
          <mxGeometry relative="1" as="geometry" />
        </mxCell>
        <mxCell id="q0F40TtUohviRgwyqJt9-199" style="edgeStyle=none;rounded=0;orthogonalLoop=1;jettySize=auto;html=1;entryX=0.376;entryY=0.991;entryDx=0;entryDy=0;entryPerimeter=0;endArrow=none;endFill=0;" edge="1" parent="1" source="q0F40TtUohviRgwyqJt9-192" target="q0F40TtUohviRgwyqJt9-37">
          <mxGeometry relative="1" as="geometry" />
        </mxCell>
        <mxCell id="q0F40TtUohviRgwyqJt9-202" style="edgeStyle=none;rounded=0;orthogonalLoop=1;jettySize=auto;html=1;entryX=1;entryY=1;entryDx=0;entryDy=0;endArrow=none;endFill=0;jumpStyle=arc;jumpSize=9;exitX=0.5;exitY=0;exitDx=0;exitDy=0;" edge="1" parent="1" source="q0F40TtUohviRgwyqJt9-40" target="q0F40TtUohviRgwyqJt9-10">
          <mxGeometry relative="1" as="geometry">
            <mxPoint x="-325.5" y="832.5000000000002" as="sourcePoint" />
          </mxGeometry>
        </mxCell>
        <mxCell id="q0F40TtUohviRgwyqJt9-203" style="edgeStyle=none;rounded=0;orthogonalLoop=1;jettySize=auto;html=1;entryX=0.25;entryY=1;entryDx=0;entryDy=0;endArrow=none;endFill=0;" edge="1" parent="1" source="q0F40TtUohviRgwyqJt9-204" target="q0F40TtUohviRgwyqJt9-34">
          <mxGeometry relative="1" as="geometry" />
        </mxCell>
        <mxCell id="q0F40TtUohviRgwyqJt9-204" value="&lt;u&gt;Week_no&lt;/u&gt;" style="ellipse;whiteSpace=wrap;html=1;align=center;" vertex="1" parent="1">
          <mxGeometry x="-885" y="1180.6900000000003" width="70.5" height="30" as="geometry" />
        </mxCell>
        <mxCell id="q0F40TtUohviRgwyqJt9-207" value="Dob" style="ellipse;whiteSpace=wrap;html=1;align=center;" vertex="1" parent="1">
          <mxGeometry x="153.5" y="352.92" width="40" height="30" as="geometry" />
        </mxCell>
        <mxCell id="q0F40TtUohviRgwyqJt9-208" style="edgeStyle=none;rounded=0;orthogonalLoop=1;jettySize=auto;html=1;entryX=0;entryY=0;entryDx=0;entryDy=0;endArrow=none;endFill=0;" edge="1" parent="1" source="q0F40TtUohviRgwyqJt9-207" target="q0F40TtUohviRgwyqJt9-17">
          <mxGeometry relative="1" as="geometry" />
        </mxCell>
        <mxCell id="q0F40TtUohviRgwyqJt9-209" value="HAS" style="shape=rhombus;double=1;perimeter=rhombusPerimeter;whiteSpace=wrap;html=1;align=center;" vertex="1" parent="1">
          <mxGeometry x="-281" y="569" width="80" height="41" as="geometry" />
        </mxCell>
        <mxCell id="q0F40TtUohviRgwyqJt9-210" style="rounded=0;orthogonalLoop=1;jettySize=auto;html=1;entryX=0.478;entryY=-0.003;entryDx=0;entryDy=0;entryPerimeter=0;endArrow=none;endFill=0;" edge="1" parent="1" source="q0F40TtUohviRgwyqJt9-209" target="q0F40TtUohviRgwyqJt9-35">
          <mxGeometry relative="1" as="geometry" />
        </mxCell>
        <mxCell id="q0F40TtUohviRgwyqJt9-211" value="N" style="edgeLabel;html=1;align=center;verticalAlign=middle;resizable=0;points=[];" vertex="1" connectable="0" parent="q0F40TtUohviRgwyqJt9-210">
          <mxGeometry x="0.6343" y="1" relative="1" as="geometry">
            <mxPoint as="offset" />
          </mxGeometry>
        </mxCell>
        <mxCell id="q0F40TtUohviRgwyqJt9-212" style="rounded=0;orthogonalLoop=1;jettySize=auto;html=1;endArrow=none;endFill=0;entryX=0.611;entryY=0.998;entryDx=0;entryDy=0;entryPerimeter=0;" edge="1" parent="1" source="q0F40TtUohviRgwyqJt9-215" target="q0F40TtUohviRgwyqJt9-35">
          <mxGeometry relative="1" as="geometry">
            <mxPoint x="-210" y="750" as="targetPoint" />
          </mxGeometry>
        </mxCell>
        <mxCell id="q0F40TtUohviRgwyqJt9-213" style="rounded=0;orthogonalLoop=1;jettySize=auto;html=1;entryX=0;entryY=0.25;entryDx=0;entryDy=0;endArrow=none;endFill=0;" edge="1" parent="1" source="q0F40TtUohviRgwyqJt9-215" target="q0F40TtUohviRgwyqJt9-20">
          <mxGeometry relative="1" as="geometry" />
        </mxCell>
        <mxCell id="q0F40TtUohviRgwyqJt9-214" value="1" style="edgeLabel;html=1;align=center;verticalAlign=middle;resizable=0;points=[];" vertex="1" connectable="0" parent="q0F40TtUohviRgwyqJt9-213">
          <mxGeometry x="0.7021" y="-2" relative="1" as="geometry">
            <mxPoint as="offset" />
          </mxGeometry>
        </mxCell>
        <mxCell id="q0F40TtUohviRgwyqJt9-215" value="Has" style="shape=rhombus;double=1;perimeter=rhombusPerimeter;whiteSpace=wrap;html=1;align=center;" vertex="1" parent="1">
          <mxGeometry x="-161" y="856" width="81" height="54" as="geometry" />
        </mxCell>
        <mxCell id="q0F40TtUohviRgwyqJt9-216" value="" style="endArrow=none;html=1;rounded=0;exitX=0.462;exitY=0.048;exitDx=0;exitDy=0;exitPerimeter=0;entryX=0.932;entryY=0.987;entryDx=0;entryDy=0;entryPerimeter=0;" edge="1" parent="1" target="q0F40TtUohviRgwyqJt9-10">
          <mxGeometry width="50" height="50" relative="1" as="geometry">
            <mxPoint x="42.46499999999969" y="695.8800000000001" as="sourcePoint" />
            <mxPoint x="-227.74" y="477.75" as="targetPoint" />
          </mxGeometry>
        </mxCell>
        <mxCell id="q0F40TtUohviRgwyqJt9-217" value="" style="endArrow=none;html=1;rounded=0;entryX=0.471;entryY=0.98;entryDx=0;entryDy=0;entryPerimeter=0;" edge="1" parent="1" target="q0F40TtUohviRgwyqJt9-47">
          <mxGeometry width="50" height="50" relative="1" as="geometry">
            <mxPoint x="242" y="1011.52" as="sourcePoint" />
            <mxPoint x="303.4775000000004" y="816.05" as="targetPoint" />
          </mxGeometry>
        </mxCell>
        <mxCell id="q0F40TtUohviRgwyqJt9-218" value="" style="endArrow=none;html=1;rounded=0;entryX=0;entryY=0;entryDx=0;entryDy=0;" edge="1" parent="1">
          <mxGeometry width="50" height="50" relative="1" as="geometry">
            <mxPoint x="-215" y="747.87" as="sourcePoint" />
            <mxPoint x="-135.75" y="867.37" as="targetPoint" />
            <Array as="points">
              <mxPoint x="-175" y="807.87" />
            </Array>
          </mxGeometry>
        </mxCell>
        <mxCell id="q0F40TtUohviRgwyqJt9-219" value="" style="endArrow=none;html=1;rounded=0;entryX=0.516;entryY=1.01;entryDx=0;entryDy=0;entryPerimeter=0;" edge="1" parent="1" target="q0F40TtUohviRgwyqJt9-52">
          <mxGeometry width="50" height="50" relative="1" as="geometry">
            <mxPoint x="-772" y="1100" as="sourcePoint" />
            <mxPoint x="-771.25" y="851.9949999999999" as="targetPoint" />
          </mxGeometry>
        </mxCell>
        <mxCell id="q0F40TtUohviRgwyqJt9-220" value="M" style="edgeLabel;html=1;align=center;verticalAlign=middle;resizable=0;points=[];shadow=0;strokeColor=light-dark(transparent,#FFFFFF);" vertex="1" connectable="0" parent="1">
          <mxGeometry x="-774" y="1070.69" as="geometry" />
        </mxCell>
        <mxCell id="q0F40TtUohviRgwyqJt9-221" value="N" style="edgeLabel;html=1;align=center;verticalAlign=middle;resizable=0;points=[];" vertex="1" connectable="0" parent="1">
          <mxGeometry x="-211" y="525.54" as="geometry">
            <mxPoint x="9" y="-29" as="offset" />
          </mxGeometry>
        </mxCell>
        <mxCell id="q0F40TtUohviRgwyqJt9-222" value="N" style="edgeLabel;html=1;align=center;verticalAlign=middle;resizable=0;points=[];" vertex="1" connectable="0" parent="1">
          <mxGeometry x="-201" y="768.5" as="geometry" />
        </mxCell>
        <mxCell id="q0F40TtUohviRgwyqJt9-223" value="M" style="edgeLabel;html=1;align=center;verticalAlign=middle;resizable=0;points=[];" vertex="1" connectable="0" parent="1">
          <mxGeometry x="253.34" y="974.88" as="geometry" />
        </mxCell>
        <mxCell id="q0F40TtUohviRgwyqJt9-224" value="Mid_P" style="ellipse;whiteSpace=wrap;html=1;align=center;" vertex="1" parent="1">
          <mxGeometry x="-331.5" y="874.63" width="41" height="20.87" as="geometry" />
        </mxCell>
        <mxCell id="q0F40TtUohviRgwyqJt9-225" style="rounded=0;orthogonalLoop=1;jettySize=auto;html=1;endArrow=none;endFill=0;entryX=1.002;entryY=0.484;entryDx=0;entryDy=0;entryPerimeter=0;" edge="1" parent="1" source="q0F40TtUohviRgwyqJt9-226" target="q0F40TtUohviRgwyqJt9-37">
          <mxGeometry relative="1" as="geometry">
            <mxPoint x="-340" y="790" as="targetPoint" />
          </mxGeometry>
        </mxCell>
        <mxCell id="q0F40TtUohviRgwyqJt9-226" value="Final_P" style="ellipse;whiteSpace=wrap;html=1;align=center;" vertex="1" parent="1">
          <mxGeometry x="-246.5" y="835.87" width="45.5" height="25" as="geometry" />
        </mxCell>
        <mxCell id="q0F40TtUohviRgwyqJt9-227" style="rounded=0;orthogonalLoop=1;jettySize=auto;html=1;entryX=0.798;entryY=0.922;entryDx=0;entryDy=0;entryPerimeter=0;endArrow=none;endFill=0;" edge="1" parent="1" source="q0F40TtUohviRgwyqJt9-224" target="q0F40TtUohviRgwyqJt9-37">
          <mxGeometry relative="1" as="geometry" />
        </mxCell>
        <mxCell id="yt6CPyS9pb7ASptgKVyJ-1" value="&lt;h2&gt;&lt;font style=&quot;font-size: 70px;&quot;&gt;ER Diagram&amp;nbsp;&lt;/font&gt;&lt;/h2&gt;" style="text;html=1;whiteSpace=wrap;strokeColor=#001DBC;fillColor=#0050ef;align=center;verticalAlign=middle;rounded=0;fontColor=#ffffff;" vertex="1" parent="1">
          <mxGeometry x="-556" y="70" width="790" height="110" as="geometry" />
        </mxCell>
      </root>
    </mxGraphModel>
  </diagram>
  <diagram name="RM (for ER Final)" id="Xwllp4692JaTmVKSEOfG">
    <mxGraphModel dx="1650" dy="987" grid="1" gridSize="10" guides="1" tooltips="1" connect="1" arrows="1" fold="1" page="1" pageScale="1" pageWidth="827" pageHeight="1169" math="0" shadow="0">
      <root>
        <mxCell id="_tiB8tEmEpVmkrLslOVU-0" />
        <mxCell id="_tiB8tEmEpVmkrLslOVU-1" parent="_tiB8tEmEpVmkrLslOVU-0" />
        <mxCell id="tT7prj-xix1qQhtasbN7-0" value="" style="shape=table;startSize=0;container=1;collapsible=0;childLayout=tableLayout;" parent="_tiB8tEmEpVmkrLslOVU-1" vertex="1">
          <mxGeometry x="80" y="176" width="640" height="40" as="geometry" />
        </mxCell>
        <mxCell id="tT7prj-xix1qQhtasbN7-1" value="" style="shape=tableRow;horizontal=0;startSize=0;swimlaneHead=0;swimlaneBody=0;strokeColor=inherit;top=0;left=0;bottom=0;right=0;collapsible=0;dropTarget=0;fillColor=none;points=[[0,0.5],[1,0.5]];portConstraint=eastwest;" parent="tT7prj-xix1qQhtasbN7-0" vertex="1">
          <mxGeometry width="640" height="40" as="geometry" />
        </mxCell>
        <mxCell id="tT7prj-xix1qQhtasbN7-2" value="&lt;u&gt;St_id&lt;/u&gt;" style="shape=partialRectangle;html=1;whiteSpace=wrap;connectable=0;strokeColor=inherit;overflow=hidden;fillColor=none;top=0;left=0;bottom=0;right=0;pointerEvents=1;" parent="tT7prj-xix1qQhtasbN7-1" vertex="1">
          <mxGeometry width="99" height="40" as="geometry">
            <mxRectangle width="99" height="40" as="alternateBounds" />
          </mxGeometry>
        </mxCell>
        <mxCell id="tT7prj-xix1qQhtasbN7-3" value="" style="shape=partialRectangle;html=1;whiteSpace=wrap;connectable=0;strokeColor=inherit;overflow=hidden;fillColor=none;top=0;left=0;bottom=0;right=0;pointerEvents=1;" parent="tT7prj-xix1qQhtasbN7-1" vertex="1">
          <mxGeometry x="99" width="59" height="40" as="geometry">
            <mxRectangle width="59" height="40" as="alternateBounds" />
          </mxGeometry>
        </mxCell>
        <mxCell id="tT7prj-xix1qQhtasbN7-4" value="City" style="shape=partialRectangle;html=1;whiteSpace=wrap;connectable=0;strokeColor=inherit;overflow=hidden;fillColor=none;top=0;left=0;bottom=0;right=0;pointerEvents=1;" parent="tT7prj-xix1qQhtasbN7-1" vertex="1">
          <mxGeometry x="158" width="69" height="40" as="geometry">
            <mxRectangle width="69" height="40" as="alternateBounds" />
          </mxGeometry>
        </mxCell>
        <mxCell id="tT7prj-xix1qQhtasbN7-5" value="Street" style="shape=partialRectangle;html=1;whiteSpace=wrap;connectable=0;strokeColor=inherit;overflow=hidden;fillColor=none;top=0;left=0;bottom=0;right=0;pointerEvents=1;" parent="tT7prj-xix1qQhtasbN7-1" vertex="1">
          <mxGeometry x="227" width="59" height="40" as="geometry">
            <mxRectangle width="59" height="40" as="alternateBounds" />
          </mxGeometry>
        </mxCell>
        <mxCell id="tT7prj-xix1qQhtasbN7-6" value="" style="shape=partialRectangle;html=1;whiteSpace=wrap;connectable=0;strokeColor=inherit;overflow=hidden;fillColor=none;top=0;left=0;bottom=0;right=0;pointerEvents=1;" parent="tT7prj-xix1qQhtasbN7-1" vertex="1">
          <mxGeometry x="286" width="76" height="40" as="geometry">
            <mxRectangle width="76" height="40" as="alternateBounds" />
          </mxGeometry>
        </mxCell>
        <mxCell id="tT7prj-xix1qQhtasbN7-7" value="" style="shape=partialRectangle;html=1;whiteSpace=wrap;connectable=0;strokeColor=inherit;overflow=hidden;fillColor=none;top=0;left=0;bottom=0;right=0;pointerEvents=1;" parent="tT7prj-xix1qQhtasbN7-1" vertex="1">
          <mxGeometry x="362" width="58" height="40" as="geometry">
            <mxRectangle width="58" height="40" as="alternateBounds" />
          </mxGeometry>
        </mxCell>
        <mxCell id="tT7prj-xix1qQhtasbN7-8" value="" style="shape=partialRectangle;html=1;whiteSpace=wrap;connectable=0;strokeColor=inherit;overflow=hidden;fillColor=none;top=0;left=0;bottom=0;right=0;pointerEvents=1;" parent="tT7prj-xix1qQhtasbN7-1" vertex="1">
          <mxGeometry x="420" width="60" height="40" as="geometry">
            <mxRectangle width="60" height="40" as="alternateBounds" />
          </mxGeometry>
        </mxCell>
        <mxCell id="tT7prj-xix1qQhtasbN7-9" value="" style="shape=partialRectangle;html=1;whiteSpace=wrap;connectable=0;strokeColor=inherit;overflow=hidden;fillColor=none;top=0;left=0;bottom=0;right=0;pointerEvents=1;" parent="tT7prj-xix1qQhtasbN7-1" vertex="1">
          <mxGeometry x="480" width="70" height="40" as="geometry">
            <mxRectangle width="70" height="40" as="alternateBounds" />
          </mxGeometry>
        </mxCell>
        <mxCell id="tT7prj-xix1qQhtasbN7-10" value="" style="shape=partialRectangle;html=1;whiteSpace=wrap;connectable=0;strokeColor=inherit;overflow=hidden;fillColor=none;top=0;left=0;bottom=0;right=0;pointerEvents=1;" parent="tT7prj-xix1qQhtasbN7-1" vertex="1">
          <mxGeometry x="550" width="90" height="40" as="geometry">
            <mxRectangle width="90" height="40" as="alternateBounds" />
          </mxGeometry>
        </mxCell>
        <mxCell id="a8w17MpJCS2gWCcQ4iQM-0" value="" style="shape=table;startSize=0;container=1;collapsible=0;childLayout=tableLayout;" parent="_tiB8tEmEpVmkrLslOVU-1" vertex="1">
          <mxGeometry x="80" y="336" width="120" height="40" as="geometry" />
        </mxCell>
        <mxCell id="a8w17MpJCS2gWCcQ4iQM-1" value="" style="shape=tableRow;horizontal=0;startSize=0;swimlaneHead=0;swimlaneBody=0;strokeColor=inherit;top=0;left=0;bottom=0;right=0;collapsible=0;dropTarget=0;fillColor=none;points=[[0,0.5],[1,0.5]];portConstraint=eastwest;" parent="a8w17MpJCS2gWCcQ4iQM-0" vertex="1">
          <mxGeometry width="120" height="40" as="geometry" />
        </mxCell>
        <mxCell id="a8w17MpJCS2gWCcQ4iQM-2" value="&lt;u&gt;St_id&lt;/u&gt;" style="shape=partialRectangle;html=1;whiteSpace=wrap;connectable=0;strokeColor=inherit;overflow=hidden;fillColor=none;top=0;left=0;bottom=0;right=0;pointerEvents=1;" parent="a8w17MpJCS2gWCcQ4iQM-1" vertex="1">
          <mxGeometry width="60" height="40" as="geometry">
            <mxRectangle width="60" height="40" as="alternateBounds" />
          </mxGeometry>
        </mxCell>
        <mxCell id="a8w17MpJCS2gWCcQ4iQM-3" value="&lt;u&gt;Phone&lt;/u&gt;" style="shape=partialRectangle;html=1;whiteSpace=wrap;connectable=0;strokeColor=inherit;overflow=hidden;fillColor=none;top=0;left=0;bottom=0;right=0;pointerEvents=1;" parent="a8w17MpJCS2gWCcQ4iQM-1" vertex="1">
          <mxGeometry x="60" width="60" height="40" as="geometry">
            <mxRectangle width="60" height="40" as="alternateBounds" />
          </mxGeometry>
        </mxCell>
        <mxCell id="a8w17MpJCS2gWCcQ4iQM-4" value="STUDENT_PHONE" style="text;html=1;align=left;verticalAlign=middle;resizable=0;points=[];autosize=1;strokeColor=none;fillColor=none;" parent="_tiB8tEmEpVmkrLslOVU-1" vertex="1">
          <mxGeometry x="80" y="306" width="130" height="30" as="geometry" />
        </mxCell>
        <mxCell id="DI4peuhaci5z_CWcxidW-0" value="STUDENT" style="text;html=1;align=left;verticalAlign=middle;resizable=0;points=[];autosize=1;strokeColor=none;fillColor=none;" parent="_tiB8tEmEpVmkrLslOVU-1" vertex="1">
          <mxGeometry x="80" y="142" width="80" height="30" as="geometry" />
        </mxCell>
        <mxCell id="DI4peuhaci5z_CWcxidW-2" style="edgeStyle=orthogonalEdgeStyle;rounded=0;orthogonalLoop=1;jettySize=auto;html=1;exitX=0.25;exitY=1;exitDx=0;exitDy=0;" parent="_tiB8tEmEpVmkrLslOVU-1" target="tT7prj-xix1qQhtasbN7-1" edge="1">
          <mxGeometry relative="1" as="geometry">
            <mxPoint x="160.24" y="216" as="targetPoint" />
            <Array as="points">
              <mxPoint x="100" y="386" />
              <mxPoint x="220" y="386" />
              <mxPoint x="220" y="310" />
              <mxPoint x="170" y="310" />
            </Array>
            <mxPoint x="100" y="376" as="sourcePoint" />
          </mxGeometry>
        </mxCell>
        <mxCell id="n-RmndSrbS7McS8RLStx-0" style="edgeStyle=orthogonalEdgeStyle;rounded=0;orthogonalLoop=1;jettySize=auto;html=1;entryX=0.122;entryY=1;entryDx=0;entryDy=0;entryPerimeter=0;exitX=0.069;exitY=0.999;exitDx=0;exitDy=0;exitPerimeter=0;" parent="_tiB8tEmEpVmkrLslOVU-1" source="W0IIi7LNAk5jsdLd20-b-1" target="tT7prj-xix1qQhtasbN7-1" edge="1">
          <mxGeometry relative="1" as="geometry">
            <mxPoint x="160" y="226" as="targetPoint" />
            <Array as="points">
              <mxPoint x="123" y="506" />
              <mxPoint x="60" y="506" />
              <mxPoint x="60" y="270" />
              <mxPoint x="158" y="270" />
            </Array>
            <mxPoint x="130" y="500" as="sourcePoint" />
          </mxGeometry>
        </mxCell>
        <mxCell id="W0IIi7LNAk5jsdLd20-b-0" value="" style="shape=table;startSize=0;container=1;collapsible=0;childLayout=tableLayout;" parent="_tiB8tEmEpVmkrLslOVU-1" vertex="1">
          <mxGeometry x="80" y="446" width="700" height="40" as="geometry" />
        </mxCell>
        <mxCell id="W0IIi7LNAk5jsdLd20-b-1" value="" style="shape=tableRow;horizontal=0;startSize=0;swimlaneHead=0;swimlaneBody=0;strokeColor=inherit;top=0;left=0;bottom=0;right=0;collapsible=0;dropTarget=0;fillColor=none;points=[[0,0.5],[1,0.5]];portConstraint=eastwest;" parent="W0IIi7LNAk5jsdLd20-b-0" vertex="1">
          <mxGeometry width="700" height="40" as="geometry" />
        </mxCell>
        <mxCell id="W0IIi7LNAk5jsdLd20-b-3" value="St_id" style="shape=partialRectangle;html=1;whiteSpace=wrap;connectable=0;strokeColor=inherit;overflow=hidden;fillColor=none;top=0;left=0;bottom=0;right=0;pointerEvents=1;fontStyle=4" parent="W0IIi7LNAk5jsdLd20-b-1" vertex="1">
          <mxGeometry width="80" height="40" as="geometry">
            <mxRectangle width="80" height="40" as="alternateBounds" />
          </mxGeometry>
        </mxCell>
        <mxCell id="W0IIi7LNAk5jsdLd20-b-4" value="C_code" style="shape=partialRectangle;html=1;whiteSpace=wrap;connectable=0;strokeColor=inherit;overflow=hidden;fillColor=none;top=0;left=0;bottom=0;right=0;pointerEvents=1;fontStyle=4" parent="W0IIi7LNAk5jsdLd20-b-1" vertex="1">
          <mxGeometry x="80" width="60" height="40" as="geometry">
            <mxRectangle width="60" height="40" as="alternateBounds" />
          </mxGeometry>
        </mxCell>
        <mxCell id="W0IIi7LNAk5jsdLd20-b-5" value="Quiz01" style="shape=partialRectangle;html=1;whiteSpace=wrap;connectable=0;strokeColor=inherit;overflow=hidden;fillColor=none;top=0;left=0;bottom=0;right=0;pointerEvents=1;" parent="W0IIi7LNAk5jsdLd20-b-1" vertex="1">
          <mxGeometry x="140" width="80" height="40" as="geometry">
            <mxRectangle width="80" height="40" as="alternateBounds" />
          </mxGeometry>
        </mxCell>
        <mxCell id="T4SMSqjg_IWoAmpGLwSc-15" value="Quiz02" style="shape=partialRectangle;html=1;whiteSpace=wrap;connectable=0;strokeColor=inherit;overflow=hidden;fillColor=none;top=0;left=0;bottom=0;right=0;pointerEvents=1;" parent="W0IIi7LNAk5jsdLd20-b-1" vertex="1">
          <mxGeometry x="220" width="80" height="40" as="geometry">
            <mxRectangle width="80" height="40" as="alternateBounds" />
          </mxGeometry>
        </mxCell>
        <mxCell id="T4SMSqjg_IWoAmpGLwSc-16" value="Quiz03" style="shape=partialRectangle;html=1;whiteSpace=wrap;connectable=0;strokeColor=inherit;overflow=hidden;fillColor=none;top=0;left=0;bottom=0;right=0;pointerEvents=1;" parent="W0IIi7LNAk5jsdLd20-b-1" vertex="1">
          <mxGeometry x="300" width="80" height="40" as="geometry">
            <mxRectangle width="80" height="40" as="alternateBounds" />
          </mxGeometry>
        </mxCell>
        <mxCell id="T4SMSqjg_IWoAmpGLwSc-17" value="Assignment" style="shape=partialRectangle;html=1;whiteSpace=wrap;connectable=0;strokeColor=inherit;overflow=hidden;fillColor=none;top=0;left=0;bottom=0;right=0;pointerEvents=1;" parent="W0IIi7LNAk5jsdLd20-b-1" vertex="1">
          <mxGeometry x="380" width="80" height="40" as="geometry">
            <mxRectangle width="80" height="40" as="alternateBounds" />
          </mxGeometry>
        </mxCell>
        <mxCell id="T4SMSqjg_IWoAmpGLwSc-18" value="Mid_T" style="shape=partialRectangle;html=1;whiteSpace=wrap;connectable=0;strokeColor=inherit;overflow=hidden;fillColor=none;top=0;left=0;bottom=0;right=0;pointerEvents=1;" parent="W0IIi7LNAk5jsdLd20-b-1" vertex="1">
          <mxGeometry x="460" width="60" height="40" as="geometry">
            <mxRectangle width="60" height="40" as="alternateBounds" />
          </mxGeometry>
        </mxCell>
        <mxCell id="o5axvluUF8a_-bSSKDSj-1" value="Mid_P" style="shape=partialRectangle;html=1;whiteSpace=wrap;connectable=0;strokeColor=inherit;overflow=hidden;fillColor=none;top=0;left=0;bottom=0;right=0;pointerEvents=1;" parent="W0IIi7LNAk5jsdLd20-b-1" vertex="1">
          <mxGeometry x="520" width="60" height="40" as="geometry">
            <mxRectangle width="60" height="40" as="alternateBounds" />
          </mxGeometry>
        </mxCell>
        <mxCell id="o5axvluUF8a_-bSSKDSj-0" value="Final_T" style="shape=partialRectangle;html=1;whiteSpace=wrap;connectable=0;strokeColor=inherit;overflow=hidden;fillColor=none;top=0;left=0;bottom=0;right=0;pointerEvents=1;" parent="W0IIi7LNAk5jsdLd20-b-1" vertex="1">
          <mxGeometry x="580" width="60" height="40" as="geometry">
            <mxRectangle width="60" height="40" as="alternateBounds" />
          </mxGeometry>
        </mxCell>
        <mxCell id="T4SMSqjg_IWoAmpGLwSc-19" value="Final_P" style="shape=partialRectangle;html=1;whiteSpace=wrap;connectable=0;strokeColor=inherit;overflow=hidden;fillColor=none;top=0;left=0;bottom=0;right=0;pointerEvents=1;" parent="W0IIi7LNAk5jsdLd20-b-1" vertex="1">
          <mxGeometry x="640" width="60" height="40" as="geometry">
            <mxRectangle width="60" height="40" as="alternateBounds" />
          </mxGeometry>
        </mxCell>
        <mxCell id="W0IIi7LNAk5jsdLd20-b-7" value="MARK" style="text;html=1;align=left;verticalAlign=middle;resizable=0;points=[];autosize=1;strokeColor=none;fillColor=none;" parent="_tiB8tEmEpVmkrLslOVU-1" vertex="1">
          <mxGeometry x="80" y="423" width="60" height="30" as="geometry" />
        </mxCell>
        <mxCell id="_232f9qkSqgT6TGqrWzG-0" value="" style="shape=table;startSize=0;container=1;collapsible=0;childLayout=tableLayout;" parent="_tiB8tEmEpVmkrLslOVU-1" vertex="1">
          <mxGeometry x="80" y="573" width="360" height="40" as="geometry" />
        </mxCell>
        <mxCell id="_232f9qkSqgT6TGqrWzG-1" value="" style="shape=tableRow;horizontal=0;startSize=0;swimlaneHead=0;swimlaneBody=0;strokeColor=inherit;top=0;left=0;bottom=0;right=0;collapsible=0;dropTarget=0;fillColor=none;points=[[0,0.5],[1,0.5]];portConstraint=eastwest;" parent="_232f9qkSqgT6TGqrWzG-0" vertex="1">
          <mxGeometry width="360" height="40" as="geometry" />
        </mxCell>
        <mxCell id="_232f9qkSqgT6TGqrWzG-2" value="Medical_id" style="shape=partialRectangle;html=1;whiteSpace=wrap;connectable=0;strokeColor=inherit;overflow=hidden;fillColor=none;top=0;left=0;bottom=0;right=0;pointerEvents=1;fontStyle=4" parent="_232f9qkSqgT6TGqrWzG-1" vertex="1">
          <mxGeometry width="77" height="40" as="geometry">
            <mxRectangle width="77" height="40" as="alternateBounds" />
          </mxGeometry>
        </mxCell>
        <mxCell id="_232f9qkSqgT6TGqrWzG-3" value="Status" style="shape=partialRectangle;html=1;whiteSpace=wrap;connectable=0;strokeColor=inherit;overflow=hidden;fillColor=none;top=0;left=0;bottom=0;right=0;pointerEvents=1;" parent="_232f9qkSqgT6TGqrWzG-1" vertex="1">
          <mxGeometry x="77" width="87" height="40" as="geometry">
            <mxRectangle width="87" height="40" as="alternateBounds" />
          </mxGeometry>
        </mxCell>
        <mxCell id="_232f9qkSqgT6TGqrWzG-4" value="Date_submitted" style="shape=partialRectangle;html=1;whiteSpace=wrap;connectable=0;strokeColor=inherit;overflow=hidden;fillColor=none;top=0;left=0;bottom=0;right=0;pointerEvents=1;" parent="_232f9qkSqgT6TGqrWzG-1" vertex="1">
          <mxGeometry x="164" width="126" height="40" as="geometry">
            <mxRectangle width="126" height="40" as="alternateBounds" />
          </mxGeometry>
        </mxCell>
        <mxCell id="_232f9qkSqgT6TGqrWzG-5" value="St_id" style="shape=partialRectangle;html=1;whiteSpace=wrap;connectable=0;strokeColor=inherit;overflow=hidden;fillColor=none;top=0;left=0;bottom=0;right=0;pointerEvents=1;" parent="_232f9qkSqgT6TGqrWzG-1" vertex="1">
          <mxGeometry x="290" width="70" height="40" as="geometry">
            <mxRectangle width="70" height="40" as="alternateBounds" />
          </mxGeometry>
        </mxCell>
        <mxCell id="T4SMSqjg_IWoAmpGLwSc-38" style="edgeStyle=orthogonalEdgeStyle;rounded=0;orthogonalLoop=1;jettySize=auto;html=1;entryX=0.066;entryY=1.039;entryDx=0;entryDy=0;entryPerimeter=0;exitX=0.161;exitY=1;exitDx=0;exitDy=0;exitPerimeter=0;" parent="_tiB8tEmEpVmkrLslOVU-1" edge="1">
          <mxGeometry relative="1" as="geometry">
            <mxPoint x="91.2300000000001" y="727.5599999999997" as="targetPoint" />
            <mxPoint x="171.90999999999994" y="486" as="sourcePoint" />
            <Array as="points">
              <mxPoint x="172" y="526" />
              <mxPoint x="50" y="526" />
              <mxPoint x="50" y="746" />
              <mxPoint x="91" y="746" />
            </Array>
          </mxGeometry>
        </mxCell>
        <mxCell id="T4SMSqjg_IWoAmpGLwSc-45" style="edgeStyle=orthogonalEdgeStyle;rounded=0;orthogonalLoop=1;jettySize=auto;html=1;exitX=0.231;exitY=1.049;exitDx=0;exitDy=0;exitPerimeter=0;entryX=0.132;entryY=1.071;entryDx=0;entryDy=0;entryPerimeter=0;" parent="_tiB8tEmEpVmkrLslOVU-1" edge="1">
          <mxGeometry relative="1" as="geometry">
            <mxPoint x="119.65999999999997" y="728.8399999999999" as="targetPoint" />
            <mxPoint x="172.6249999999999" y="1547.96" as="sourcePoint" />
            <Array as="points">
              <mxPoint x="173" y="1596" />
              <mxPoint x="40" y="1596" />
              <mxPoint x="40" y="796" />
              <mxPoint x="120" y="796" />
            </Array>
          </mxGeometry>
        </mxCell>
        <mxCell id="LV1jHeiykwOVj8syV5hZ-1" value="" style="shape=table;startSize=0;container=1;collapsible=0;childLayout=tableLayout;" parent="_tiB8tEmEpVmkrLslOVU-1" vertex="1">
          <mxGeometry x="80" y="686" width="290" height="40" as="geometry" />
        </mxCell>
        <mxCell id="LV1jHeiykwOVj8syV5hZ-2" value="" style="shape=tableRow;horizontal=0;startSize=0;swimlaneHead=0;swimlaneBody=0;strokeColor=inherit;top=0;left=0;bottom=0;right=0;collapsible=0;dropTarget=0;fillColor=none;points=[[0,0.5],[1,0.5]];portConstraint=eastwest;" parent="LV1jHeiykwOVj8syV5hZ-1" vertex="1">
          <mxGeometry width="290" height="40" as="geometry" />
        </mxCell>
        <mxCell id="LV1jHeiykwOVj8syV5hZ-3" value="C_code" style="shape=partialRectangle;html=1;whiteSpace=wrap;connectable=0;strokeColor=inherit;overflow=hidden;fillColor=none;top=0;left=0;bottom=0;right=0;pointerEvents=1;fontStyle=4" parent="LV1jHeiykwOVj8syV5hZ-2" vertex="1">
          <mxGeometry width="70" height="40" as="geometry">
            <mxRectangle width="70" height="40" as="alternateBounds" />
          </mxGeometry>
        </mxCell>
        <mxCell id="LV1jHeiykwOVj8syV5hZ-4" value="C_name" style="shape=partialRectangle;html=1;whiteSpace=wrap;connectable=0;strokeColor=inherit;overflow=hidden;fillColor=none;top=0;left=0;bottom=0;right=0;pointerEvents=1;" parent="LV1jHeiykwOVj8syV5hZ-2" vertex="1">
          <mxGeometry x="70" width="80" height="40" as="geometry">
            <mxRectangle width="80" height="40" as="alternateBounds" />
          </mxGeometry>
        </mxCell>
        <mxCell id="LV1jHeiykwOVj8syV5hZ-5" value="Credit" style="shape=partialRectangle;html=1;whiteSpace=wrap;connectable=0;strokeColor=inherit;overflow=hidden;fillColor=none;top=0;left=0;bottom=0;right=0;pointerEvents=1;" parent="LV1jHeiykwOVj8syV5hZ-2" vertex="1">
          <mxGeometry x="150" width="80" height="40" as="geometry">
            <mxRectangle width="80" height="40" as="alternateBounds" />
          </mxGeometry>
        </mxCell>
        <mxCell id="LV1jHeiykwOVj8syV5hZ-7" value="Lec_id" style="shape=partialRectangle;html=1;whiteSpace=wrap;connectable=0;strokeColor=inherit;overflow=hidden;fillColor=none;top=0;left=0;bottom=0;right=0;pointerEvents=1;fontStyle=0" parent="LV1jHeiykwOVj8syV5hZ-2" vertex="1">
          <mxGeometry x="230" width="60" height="40" as="geometry">
            <mxRectangle width="60" height="40" as="alternateBounds" />
          </mxGeometry>
        </mxCell>
        <mxCell id="LV1jHeiykwOVj8syV5hZ-16" value="MEDICAL" style="text;strokeColor=none;align=center;fillColor=none;html=1;verticalAlign=middle;whiteSpace=wrap;rounded=0;" parent="_tiB8tEmEpVmkrLslOVU-1" vertex="1">
          <mxGeometry x="80" y="543" width="60" height="30" as="geometry" />
        </mxCell>
        <mxCell id="uJqX0hBABi6My97VCVzp-0" value="COURSE" style="text;strokeColor=none;align=center;fillColor=none;html=1;verticalAlign=middle;whiteSpace=wrap;rounded=0;" parent="_tiB8tEmEpVmkrLslOVU-1" vertex="1">
          <mxGeometry x="80" y="656" width="60" height="30" as="geometry" />
        </mxCell>
        <mxCell id="uJqX0hBABi6My97VCVzp-9" value="ATTENDANCE" style="text;strokeColor=none;align=center;fillColor=none;html=1;verticalAlign=middle;whiteSpace=wrap;rounded=0;" parent="_tiB8tEmEpVmkrLslOVU-1" vertex="1">
          <mxGeometry x="90" y="996" width="60" height="30" as="geometry" />
        </mxCell>
        <mxCell id="uJqX0hBABi6My97VCVzp-10" value="" style="shape=table;startSize=0;container=1;collapsible=0;childLayout=tableLayout;fontStyle=4" parent="_tiB8tEmEpVmkrLslOVU-1" vertex="1">
          <mxGeometry x="80" y="1026" width="330" height="40" as="geometry" />
        </mxCell>
        <mxCell id="uJqX0hBABi6My97VCVzp-11" value="" style="shape=tableRow;horizontal=0;startSize=0;swimlaneHead=0;swimlaneBody=0;strokeColor=inherit;top=0;left=0;bottom=0;right=0;collapsible=0;dropTarget=0;fillColor=none;points=[[0,0.5],[1,0.5]];portConstraint=eastwest;" parent="uJqX0hBABi6My97VCVzp-10" vertex="1">
          <mxGeometry width="330" height="40" as="geometry" />
        </mxCell>
        <mxCell id="uJqX0hBABi6My97VCVzp-13" value="" style="shape=partialRectangle;html=1;whiteSpace=wrap;connectable=0;strokeColor=inherit;overflow=hidden;fillColor=none;top=0;left=0;bottom=0;right=0;pointerEvents=1;" parent="uJqX0hBABi6My97VCVzp-11" vertex="1">
          <mxGeometry width="80" height="40" as="geometry">
            <mxRectangle width="80" height="40" as="alternateBounds" />
          </mxGeometry>
        </mxCell>
        <mxCell id="uJqX0hBABi6My97VCVzp-14" value="" style="shape=partialRectangle;html=1;whiteSpace=wrap;connectable=0;strokeColor=inherit;overflow=hidden;fillColor=none;top=0;left=0;bottom=0;right=0;pointerEvents=1;fontStyle=4" parent="uJqX0hBABi6My97VCVzp-11" vertex="1">
          <mxGeometry x="80" width="80" height="40" as="geometry">
            <mxRectangle width="80" height="40" as="alternateBounds" />
          </mxGeometry>
        </mxCell>
        <mxCell id="uJqX0hBABi6My97VCVzp-15" value="" style="shape=partialRectangle;html=1;whiteSpace=wrap;connectable=0;strokeColor=inherit;overflow=hidden;fillColor=none;top=0;left=0;bottom=0;right=0;pointerEvents=1;" parent="uJqX0hBABi6My97VCVzp-11" vertex="1">
          <mxGeometry x="160" width="80" height="40" as="geometry">
            <mxRectangle width="80" height="40" as="alternateBounds" />
          </mxGeometry>
        </mxCell>
        <mxCell id="T4SMSqjg_IWoAmpGLwSc-29" value="Week_no" style="shape=partialRectangle;html=1;whiteSpace=wrap;connectable=0;strokeColor=inherit;overflow=hidden;fillColor=none;top=0;left=0;bottom=0;right=0;pointerEvents=1;fontStyle=4" parent="uJqX0hBABi6My97VCVzp-11" vertex="1">
          <mxGeometry x="240" width="90" height="40" as="geometry">
            <mxRectangle width="90" height="40" as="alternateBounds" />
          </mxGeometry>
        </mxCell>
        <mxCell id="uJqX0hBABi6My97VCVzp-19" value="LECTURER" style="text;strokeColor=none;align=center;fillColor=none;html=1;verticalAlign=middle;whiteSpace=wrap;rounded=0;" parent="_tiB8tEmEpVmkrLslOVU-1" vertex="1">
          <mxGeometry x="84" y="1179" width="60" height="30" as="geometry" />
        </mxCell>
        <mxCell id="uJqX0hBABi6My97VCVzp-20" value="" style="shape=table;startSize=0;container=1;collapsible=0;childLayout=tableLayout;" parent="_tiB8tEmEpVmkrLslOVU-1" vertex="1">
          <mxGeometry x="80" y="1220" width="670" height="40" as="geometry" />
        </mxCell>
        <mxCell id="uJqX0hBABi6My97VCVzp-21" value="" style="shape=tableRow;horizontal=0;startSize=0;swimlaneHead=0;swimlaneBody=0;strokeColor=inherit;top=0;left=0;bottom=0;right=0;collapsible=0;dropTarget=0;fillColor=none;points=[[0,0.5],[1,0.5]];portConstraint=eastwest;" parent="uJqX0hBABi6My97VCVzp-20" vertex="1">
          <mxGeometry width="670" height="40" as="geometry" />
        </mxCell>
        <mxCell id="uJqX0hBABi6My97VCVzp-22" value="Lec_id" style="shape=partialRectangle;html=1;whiteSpace=wrap;connectable=0;strokeColor=inherit;overflow=hidden;fillColor=none;top=0;left=0;bottom=0;right=0;pointerEvents=1;fontStyle=4" parent="uJqX0hBABi6My97VCVzp-21" vertex="1">
          <mxGeometry width="70" height="40" as="geometry">
            <mxRectangle width="70" height="40" as="alternateBounds" />
          </mxGeometry>
        </mxCell>
        <mxCell id="uJqX0hBABi6My97VCVzp-23" value="" style="shape=partialRectangle;html=1;whiteSpace=wrap;connectable=0;strokeColor=inherit;overflow=hidden;fillColor=none;top=0;left=0;bottom=0;right=0;pointerEvents=1;" parent="uJqX0hBABi6My97VCVzp-21" vertex="1">
          <mxGeometry x="70" width="50" height="40" as="geometry">
            <mxRectangle width="50" height="40" as="alternateBounds" />
          </mxGeometry>
        </mxCell>
        <mxCell id="uJqX0hBABi6My97VCVzp-24" value="" style="shape=partialRectangle;html=1;whiteSpace=wrap;connectable=0;strokeColor=inherit;overflow=hidden;fillColor=none;top=0;left=0;bottom=0;right=0;pointerEvents=1;" parent="uJqX0hBABi6My97VCVzp-21" vertex="1">
          <mxGeometry x="120" width="60" height="40" as="geometry">
            <mxRectangle width="60" height="40" as="alternateBounds" />
          </mxGeometry>
        </mxCell>
        <mxCell id="uJqX0hBABi6My97VCVzp-25" value="" style="shape=partialRectangle;html=1;whiteSpace=wrap;connectable=0;strokeColor=inherit;overflow=hidden;fillColor=none;top=0;left=0;bottom=0;right=0;pointerEvents=1;" parent="uJqX0hBABi6My97VCVzp-21" vertex="1">
          <mxGeometry x="180" width="70" height="40" as="geometry">
            <mxRectangle width="70" height="40" as="alternateBounds" />
          </mxGeometry>
        </mxCell>
        <mxCell id="uJqX0hBABi6My97VCVzp-26" value="Name" style="shape=partialRectangle;html=1;whiteSpace=wrap;connectable=0;strokeColor=inherit;overflow=hidden;fillColor=none;top=0;left=0;bottom=0;right=0;pointerEvents=1;" parent="uJqX0hBABi6My97VCVzp-21" vertex="1">
          <mxGeometry x="250" width="70" height="40" as="geometry">
            <mxRectangle width="70" height="40" as="alternateBounds" />
          </mxGeometry>
        </mxCell>
        <mxCell id="uJqX0hBABi6My97VCVzp-27" value="" style="shape=partialRectangle;html=1;whiteSpace=wrap;connectable=0;strokeColor=inherit;overflow=hidden;fillColor=none;top=0;left=0;bottom=0;right=0;pointerEvents=1;" parent="uJqX0hBABi6My97VCVzp-21" vertex="1">
          <mxGeometry x="320" width="80" height="40" as="geometry">
            <mxRectangle width="80" height="40" as="alternateBounds" />
          </mxGeometry>
        </mxCell>
        <mxCell id="uJqX0hBABi6My97VCVzp-28" value="" style="shape=partialRectangle;html=1;whiteSpace=wrap;connectable=0;strokeColor=inherit;overflow=hidden;fillColor=none;top=0;left=0;bottom=0;right=0;pointerEvents=1;" parent="uJqX0hBABi6My97VCVzp-21" vertex="1">
          <mxGeometry x="400" width="60" height="40" as="geometry">
            <mxRectangle width="60" height="40" as="alternateBounds" />
          </mxGeometry>
        </mxCell>
        <mxCell id="mmcW-JgOqtuN_uXGNvST-3" value="" style="shape=partialRectangle;html=1;whiteSpace=wrap;connectable=0;strokeColor=inherit;overflow=hidden;fillColor=none;top=0;left=0;bottom=0;right=0;pointerEvents=1;" parent="uJqX0hBABi6My97VCVzp-21" vertex="1">
          <mxGeometry x="460" width="90" height="40" as="geometry">
            <mxRectangle width="90" height="40" as="alternateBounds" />
          </mxGeometry>
        </mxCell>
        <mxCell id="mmcW-JgOqtuN_uXGNvST-2" value="" style="shape=partialRectangle;html=1;whiteSpace=wrap;connectable=0;strokeColor=inherit;overflow=hidden;fillColor=none;top=0;left=0;bottom=0;right=0;pointerEvents=1;" parent="uJqX0hBABi6My97VCVzp-21" vertex="1">
          <mxGeometry x="550" width="60" height="40" as="geometry">
            <mxRectangle width="60" height="40" as="alternateBounds" />
          </mxGeometry>
        </mxCell>
        <mxCell id="T4SMSqjg_IWoAmpGLwSc-30" value="Dob" style="shape=partialRectangle;html=1;whiteSpace=wrap;connectable=0;strokeColor=inherit;overflow=hidden;fillColor=none;top=0;left=0;bottom=0;right=0;pointerEvents=1;" parent="uJqX0hBABi6My97VCVzp-21" vertex="1">
          <mxGeometry x="610" width="60" height="40" as="geometry">
            <mxRectangle width="60" height="40" as="alternateBounds" />
          </mxGeometry>
        </mxCell>
        <mxCell id="mmcW-JgOqtuN_uXGNvST-4" value="LECTURER_PHONE" style="text;strokeColor=none;align=center;fillColor=none;html=1;verticalAlign=middle;whiteSpace=wrap;rounded=0;" parent="_tiB8tEmEpVmkrLslOVU-1" vertex="1">
          <mxGeometry x="107" y="1335" width="60" height="30" as="geometry" />
        </mxCell>
        <mxCell id="mmcW-JgOqtuN_uXGNvST-5" value="" style="shape=table;startSize=0;container=1;collapsible=0;childLayout=tableLayout;" parent="_tiB8tEmEpVmkrLslOVU-1" vertex="1">
          <mxGeometry x="80" y="1379" width="120" height="40" as="geometry" />
        </mxCell>
        <mxCell id="mmcW-JgOqtuN_uXGNvST-6" value="" style="shape=tableRow;horizontal=0;startSize=0;swimlaneHead=0;swimlaneBody=0;strokeColor=inherit;top=0;left=0;bottom=0;right=0;collapsible=0;dropTarget=0;fillColor=none;points=[[0,0.5],[1,0.5]];portConstraint=eastwest;" parent="mmcW-JgOqtuN_uXGNvST-5" vertex="1">
          <mxGeometry width="120" height="40" as="geometry" />
        </mxCell>
        <mxCell id="mmcW-JgOqtuN_uXGNvST-7" value="&lt;u&gt;Lec_id&lt;/u&gt;" style="shape=partialRectangle;html=1;whiteSpace=wrap;connectable=0;strokeColor=inherit;overflow=hidden;fillColor=none;top=0;left=0;bottom=0;right=0;pointerEvents=1;" parent="mmcW-JgOqtuN_uXGNvST-6" vertex="1">
          <mxGeometry width="60" height="40" as="geometry">
            <mxRectangle width="60" height="40" as="alternateBounds" />
          </mxGeometry>
        </mxCell>
        <mxCell id="mmcW-JgOqtuN_uXGNvST-8" value="&lt;u&gt;Phone&lt;/u&gt;" style="shape=partialRectangle;html=1;whiteSpace=wrap;connectable=0;strokeColor=inherit;overflow=hidden;fillColor=none;top=0;left=0;bottom=0;right=0;pointerEvents=1;" parent="mmcW-JgOqtuN_uXGNvST-6" vertex="1">
          <mxGeometry x="60" width="60" height="40" as="geometry">
            <mxRectangle width="60" height="40" as="alternateBounds" />
          </mxGeometry>
        </mxCell>
        <mxCell id="mmcW-JgOqtuN_uXGNvST-9" value="ENROLLS_IN" style="text;strokeColor=none;align=center;fillColor=none;html=1;verticalAlign=middle;whiteSpace=wrap;rounded=0;" parent="_tiB8tEmEpVmkrLslOVU-1" vertex="1">
          <mxGeometry x="87" y="1475" width="60" height="30" as="geometry" />
        </mxCell>
        <mxCell id="mmcW-JgOqtuN_uXGNvST-10" value="" style="shape=table;startSize=0;container=1;collapsible=0;childLayout=tableLayout;" parent="_tiB8tEmEpVmkrLslOVU-1" vertex="1">
          <mxGeometry x="80" y="1506" width="395" height="40" as="geometry" />
        </mxCell>
        <mxCell id="mmcW-JgOqtuN_uXGNvST-11" value="" style="shape=tableRow;horizontal=0;startSize=0;swimlaneHead=0;swimlaneBody=0;strokeColor=inherit;top=0;left=0;bottom=0;right=0;collapsible=0;dropTarget=0;fillColor=none;points=[[0,0.5],[1,0.5]];portConstraint=eastwest;" parent="mmcW-JgOqtuN_uXGNvST-10" vertex="1">
          <mxGeometry width="395" height="40" as="geometry" />
        </mxCell>
        <mxCell id="mmcW-JgOqtuN_uXGNvST-12" value="&lt;u&gt;St_id&lt;/u&gt;" style="shape=partialRectangle;html=1;whiteSpace=wrap;connectable=0;strokeColor=inherit;overflow=hidden;fillColor=none;top=0;left=0;bottom=0;right=0;pointerEvents=1;" parent="mmcW-JgOqtuN_uXGNvST-11" vertex="1">
          <mxGeometry width="60" height="40" as="geometry">
            <mxRectangle width="60" height="40" as="alternateBounds" />
          </mxGeometry>
        </mxCell>
        <mxCell id="mmcW-JgOqtuN_uXGNvST-13" value="&lt;u&gt;C_code&lt;/u&gt;" style="shape=partialRectangle;html=1;whiteSpace=wrap;connectable=0;strokeColor=inherit;overflow=hidden;fillColor=none;top=0;left=0;bottom=0;right=0;pointerEvents=1;" parent="mmcW-JgOqtuN_uXGNvST-11" vertex="1">
          <mxGeometry x="60" width="60" height="40" as="geometry">
            <mxRectangle width="60" height="40" as="alternateBounds" />
          </mxGeometry>
        </mxCell>
        <mxCell id="mmcW-JgOqtuN_uXGNvST-16" value="Sem" style="shape=partialRectangle;html=1;whiteSpace=wrap;connectable=0;strokeColor=inherit;overflow=hidden;fillColor=none;top=0;left=0;bottom=0;right=0;pointerEvents=1;" parent="mmcW-JgOqtuN_uXGNvST-11" vertex="1">
          <mxGeometry x="120" width="60" height="40" as="geometry">
            <mxRectangle width="60" height="40" as="alternateBounds" />
          </mxGeometry>
        </mxCell>
        <mxCell id="8j82z1IWAl4MmmDvAMhX-0" value="Level" style="shape=partialRectangle;html=1;whiteSpace=wrap;connectable=0;strokeColor=inherit;overflow=hidden;fillColor=none;top=0;left=0;bottom=0;right=0;pointerEvents=1;" parent="mmcW-JgOqtuN_uXGNvST-11" vertex="1">
          <mxGeometry x="180" width="60" height="40" as="geometry">
            <mxRectangle width="60" height="40" as="alternateBounds" />
          </mxGeometry>
        </mxCell>
        <mxCell id="mmcW-JgOqtuN_uXGNvST-15" value="Academic_yr" style="shape=partialRectangle;html=1;whiteSpace=wrap;connectable=0;strokeColor=inherit;overflow=hidden;fillColor=none;top=0;left=0;bottom=0;right=0;pointerEvents=1;" parent="mmcW-JgOqtuN_uXGNvST-11" vertex="1">
          <mxGeometry x="240" width="85" height="40" as="geometry">
            <mxRectangle width="85" height="40" as="alternateBounds" />
          </mxGeometry>
        </mxCell>
        <mxCell id="mmcW-JgOqtuN_uXGNvST-14" value="Status" style="shape=partialRectangle;html=1;whiteSpace=wrap;connectable=0;strokeColor=inherit;overflow=hidden;fillColor=none;top=0;left=0;bottom=0;right=0;pointerEvents=1;" parent="mmcW-JgOqtuN_uXGNvST-11" vertex="1">
          <mxGeometry x="325" width="70" height="40" as="geometry">
            <mxRectangle width="70" height="40" as="alternateBounds" />
          </mxGeometry>
        </mxCell>
        <mxCell id="mmcW-JgOqtuN_uXGNvST-29" value="SESSION" style="text;html=1;align=left;verticalAlign=middle;resizable=0;points=[];autosize=1;strokeColor=none;fillColor=none;" parent="_tiB8tEmEpVmkrLslOVU-1" vertex="1">
          <mxGeometry x="80" y="825" width="80" height="30" as="geometry" />
        </mxCell>
        <mxCell id="mmcW-JgOqtuN_uXGNvST-30" value="" style="shape=table;startSize=0;container=1;collapsible=0;childLayout=tableLayout;" parent="_tiB8tEmEpVmkrLslOVU-1" vertex="1">
          <mxGeometry x="80" y="858" width="260" height="40" as="geometry" />
        </mxCell>
        <mxCell id="mmcW-JgOqtuN_uXGNvST-31" value="" style="shape=tableRow;horizontal=0;startSize=0;swimlaneHead=0;swimlaneBody=0;strokeColor=inherit;top=0;left=0;bottom=0;right=0;collapsible=0;dropTarget=0;fillColor=none;points=[[0,0.5],[1,0.5]];portConstraint=eastwest;" parent="mmcW-JgOqtuN_uXGNvST-30" vertex="1">
          <mxGeometry width="260" height="40" as="geometry" />
        </mxCell>
        <mxCell id="mmcW-JgOqtuN_uXGNvST-32" value="Session_id" style="shape=partialRectangle;html=1;whiteSpace=wrap;connectable=0;strokeColor=inherit;overflow=hidden;fillColor=none;top=0;left=0;bottom=0;right=0;pointerEvents=1;fontStyle=4" parent="mmcW-JgOqtuN_uXGNvST-31" vertex="1">
          <mxGeometry width="80" height="40" as="geometry">
            <mxRectangle width="80" height="40" as="alternateBounds" />
          </mxGeometry>
        </mxCell>
        <mxCell id="mmcW-JgOqtuN_uXGNvST-33" value="Type" style="shape=partialRectangle;html=1;whiteSpace=wrap;connectable=0;strokeColor=inherit;overflow=hidden;fillColor=none;top=0;left=0;bottom=0;right=0;pointerEvents=1;" parent="mmcW-JgOqtuN_uXGNvST-31" vertex="1">
          <mxGeometry x="80" width="80" height="40" as="geometry">
            <mxRectangle width="80" height="40" as="alternateBounds" />
          </mxGeometry>
        </mxCell>
        <mxCell id="mmcW-JgOqtuN_uXGNvST-35" value="C_code" style="shape=partialRectangle;html=1;whiteSpace=wrap;connectable=0;strokeColor=inherit;overflow=hidden;fillColor=none;top=0;left=0;bottom=0;right=0;pointerEvents=1;" parent="mmcW-JgOqtuN_uXGNvST-31" vertex="1">
          <mxGeometry x="160" width="100" height="40" as="geometry">
            <mxRectangle width="100" height="40" as="alternateBounds" />
          </mxGeometry>
        </mxCell>
        <mxCell id="mmcW-JgOqtuN_uXGNvST-61" style="edgeStyle=orthogonalEdgeStyle;rounded=0;orthogonalLoop=1;jettySize=auto;html=1;jumpStyle=arc;exitX=0.912;exitY=1.014;exitDx=0;exitDy=0;exitPerimeter=0;entryX=0.097;entryY=0.939;entryDx=0;entryDy=0;entryPerimeter=0;" parent="_tiB8tEmEpVmkrLslOVU-1" edge="1">
          <mxGeometry relative="1" as="geometry">
            <mxPoint x="142.07999999999998" y="216" as="targetPoint" />
            <mxPoint x="408.32000000000005" y="616" as="sourcePoint" />
            <Array as="points">
              <mxPoint x="410" y="616" />
              <mxPoint x="410" y="640" />
              <mxPoint x="470" y="640" />
              <mxPoint x="470" y="516" />
              <mxPoint x="50" y="516" />
              <mxPoint x="50" y="260" />
              <mxPoint x="142" y="260" />
            </Array>
          </mxGeometry>
        </mxCell>
        <mxCell id="mmcW-JgOqtuN_uXGNvST-64" style="edgeStyle=orthogonalEdgeStyle;rounded=0;orthogonalLoop=1;jettySize=auto;html=1;entryX=0.188;entryY=1.08;entryDx=0;entryDy=0;entryPerimeter=0;exitX=0.892;exitY=1.05;exitDx=0;exitDy=0;exitPerimeter=0;" parent="_tiB8tEmEpVmkrLslOVU-1" source="mmcW-JgOqtuN_uXGNvST-31" target="LV1jHeiykwOVj8syV5hZ-2" edge="1">
          <mxGeometry relative="1" as="geometry">
            <mxPoint x="131.99999999999997" y="760.9" as="targetPoint" />
            <mxPoint x="316.56" y="941.1" as="sourcePoint" />
            <Array as="points">
              <mxPoint x="312" y="916" />
              <mxPoint x="380" y="916" />
              <mxPoint x="380" y="796" />
              <mxPoint x="135" y="796" />
            </Array>
          </mxGeometry>
        </mxCell>
        <mxCell id="RA6WH5sdtOcbIVI1_QBT-0" style="edgeStyle=orthogonalEdgeStyle;rounded=0;orthogonalLoop=1;jettySize=auto;html=1;entryX=0.095;entryY=1.031;entryDx=0;entryDy=0;entryPerimeter=0;" parent="_tiB8tEmEpVmkrLslOVU-1" target="mmcW-JgOqtuN_uXGNvST-31" edge="1">
          <mxGeometry relative="1" as="geometry">
            <mxPoint x="110" y="926" as="targetPoint" />
            <mxPoint x="210" y="1066" as="sourcePoint" />
            <Array as="points">
              <mxPoint x="210" y="1116" />
              <mxPoint x="60" y="1116" />
              <mxPoint x="60" y="986" />
              <mxPoint x="105" y="986" />
            </Array>
          </mxGeometry>
        </mxCell>
        <mxCell id="RA6WH5sdtOcbIVI1_QBT-2" style="edgeStyle=orthogonalEdgeStyle;rounded=0;orthogonalLoop=1;jettySize=auto;html=1;entryX=0.063;entryY=0.975;entryDx=0;entryDy=0;entryPerimeter=0;jumpStyle=arc;" parent="_tiB8tEmEpVmkrLslOVU-1" edge="1">
          <mxGeometry relative="1" as="geometry">
            <mxPoint x="130.32" y="216" as="targetPoint" />
            <mxPoint x="120" y="1066" as="sourcePoint" />
            <Array as="points">
              <mxPoint x="120" y="1096" />
              <mxPoint x="30" y="1096" />
              <mxPoint x="30" y="250" />
              <mxPoint x="130" y="250" />
            </Array>
          </mxGeometry>
        </mxCell>
        <mxCell id="RA6WH5sdtOcbIVI1_QBT-5" style="edgeStyle=orthogonalEdgeStyle;rounded=0;orthogonalLoop=1;jettySize=auto;html=1;" parent="_tiB8tEmEpVmkrLslOVU-1" source="mmcW-JgOqtuN_uXGNvST-6" target="uJqX0hBABi6My97VCVzp-21" edge="1">
          <mxGeometry relative="1" as="geometry">
            <mxPoint x="100.7399999999999" y="1346" as="targetPoint" />
            <mxPoint x="120" y="1489" as="sourcePoint" />
            <Array as="points">
              <mxPoint x="120" y="1436" />
              <mxPoint x="60" y="1436" />
              <mxPoint x="60" y="1296" />
              <mxPoint x="101" y="1296" />
            </Array>
          </mxGeometry>
        </mxCell>
        <mxCell id="RA6WH5sdtOcbIVI1_QBT-6" style="edgeStyle=orthogonalEdgeStyle;rounded=0;orthogonalLoop=1;jettySize=auto;html=1;entryX=0.031;entryY=1.064;entryDx=0;entryDy=0;entryPerimeter=0;jumpStyle=arc;exitX=0.076;exitY=1.042;exitDx=0;exitDy=0;exitPerimeter=0;" parent="_tiB8tEmEpVmkrLslOVU-1" source="mmcW-JgOqtuN_uXGNvST-11" edge="1">
          <mxGeometry relative="1" as="geometry">
            <mxPoint x="119.83999999999997" y="216" as="targetPoint" />
            <mxPoint x="90" y="1566" as="sourcePoint" />
            <Array as="points">
              <mxPoint x="110" y="1576" />
              <mxPoint x="20" y="1576" />
              <mxPoint x="20" y="240" />
              <mxPoint x="120" y="240" />
            </Array>
          </mxGeometry>
        </mxCell>
        <mxCell id="RA6WH5sdtOcbIVI1_QBT-7" style="edgeStyle=orthogonalEdgeStyle;rounded=0;orthogonalLoop=1;jettySize=auto;html=1;jumpStyle=arc;exitX=0.867;exitY=0.985;exitDx=0;exitDy=0;exitPerimeter=0;entryX=0.059;entryY=0.956;entryDx=0;entryDy=0;entryPerimeter=0;" parent="_tiB8tEmEpVmkrLslOVU-1" edge="1">
          <mxGeometry relative="1" as="geometry">
            <mxPoint x="124.77999999999997" y="1258.8400000000001" as="targetPoint" />
            <Array as="points">
              <mxPoint x="337" y="767" />
              <mxPoint x="775" y="767" />
              <mxPoint x="775" y="1296" />
              <mxPoint x="125" y="1296" />
            </Array>
            <mxPoint x="336.68000000000006" y="726" as="sourcePoint" />
          </mxGeometry>
        </mxCell>
        <mxCell id="iK_z4xqluITd690mn7Fc-1" value="St_id" style="shape=partialRectangle;html=1;whiteSpace=wrap;connectable=0;strokeColor=inherit;overflow=hidden;fillColor=none;top=0;left=0;bottom=0;right=0;pointerEvents=1;fontStyle=4" parent="_tiB8tEmEpVmkrLslOVU-1" vertex="1">
          <mxGeometry x="80" y="1026" width="70" height="40" as="geometry">
            <mxRectangle width="80" height="40" as="alternateBounds" />
          </mxGeometry>
        </mxCell>
        <mxCell id="iK_z4xqluITd690mn7Fc-2" value="&lt;u&gt;Session_id&lt;/u&gt;" style="shape=partialRectangle;html=1;whiteSpace=wrap;connectable=0;strokeColor=inherit;overflow=hidden;fillColor=none;top=0;left=0;bottom=0;right=0;pointerEvents=1;" parent="_tiB8tEmEpVmkrLslOVU-1" vertex="1">
          <mxGeometry x="160" y="1026" width="80" height="40" as="geometry">
            <mxRectangle width="80" height="40" as="alternateBounds" />
          </mxGeometry>
        </mxCell>
        <mxCell id="iK_z4xqluITd690mn7Fc-3" value="Status" style="shape=partialRectangle;html=1;whiteSpace=wrap;connectable=0;strokeColor=inherit;overflow=hidden;fillColor=none;top=0;left=0;bottom=0;right=0;pointerEvents=1;" parent="_tiB8tEmEpVmkrLslOVU-1" vertex="1">
          <mxGeometry x="237.5" y="1026" width="80" height="40" as="geometry">
            <mxRectangle width="80" height="40" as="alternateBounds" />
          </mxGeometry>
        </mxCell>
        <mxCell id="HOm5d55l4YF25VSeq4_g-5" value="No" style="shape=partialRectangle;html=1;whiteSpace=wrap;connectable=0;strokeColor=inherit;overflow=hidden;fillColor=none;top=0;left=0;bottom=0;right=0;pointerEvents=1;" parent="_tiB8tEmEpVmkrLslOVU-1" vertex="1">
          <mxGeometry x="180" y="176" width="57" height="40" as="geometry">
            <mxRectangle width="57" height="40" as="alternateBounds" />
          </mxGeometry>
        </mxCell>
        <mxCell id="HOm5d55l4YF25VSeq4_g-8" value="S_name" style="shape=partialRectangle;html=1;whiteSpace=wrap;connectable=0;strokeColor=inherit;overflow=hidden;fillColor=none;top=0;left=0;bottom=0;right=0;pointerEvents=1;" parent="_tiB8tEmEpVmkrLslOVU-1" vertex="1">
          <mxGeometry x="367" y="176" width="59" height="40" as="geometry">
            <mxRectangle width="59" height="40" as="alternateBounds" />
          </mxGeometry>
        </mxCell>
        <mxCell id="HOm5d55l4YF25VSeq4_g-9" value="Email" style="shape=partialRectangle;html=1;whiteSpace=wrap;connectable=0;strokeColor=inherit;overflow=hidden;fillColor=none;top=0;left=0;bottom=0;right=0;pointerEvents=1;" parent="_tiB8tEmEpVmkrLslOVU-1" vertex="1">
          <mxGeometry x="440" y="176" width="69" height="40" as="geometry">
            <mxRectangle width="69" height="40" as="alternateBounds" />
          </mxGeometry>
        </mxCell>
        <mxCell id="HOm5d55l4YF25VSeq4_g-10" value="Nic" style="shape=partialRectangle;html=1;whiteSpace=wrap;connectable=0;strokeColor=inherit;overflow=hidden;fillColor=none;top=0;left=0;bottom=0;right=0;pointerEvents=1;" parent="_tiB8tEmEpVmkrLslOVU-1" vertex="1">
          <mxGeometry x="500" y="176" width="59" height="40" as="geometry">
            <mxRectangle width="59" height="40" as="alternateBounds" />
          </mxGeometry>
        </mxCell>
        <mxCell id="HOm5d55l4YF25VSeq4_g-11" value="Dpt_name" style="shape=partialRectangle;html=1;whiteSpace=wrap;connectable=0;strokeColor=inherit;overflow=hidden;fillColor=none;top=0;left=0;bottom=0;right=0;pointerEvents=1;" parent="_tiB8tEmEpVmkrLslOVU-1" vertex="1">
          <mxGeometry x="559" y="176" width="76" height="40" as="geometry">
            <mxRectangle width="76" height="40" as="alternateBounds" />
          </mxGeometry>
        </mxCell>
        <mxCell id="HOm5d55l4YF25VSeq4_g-12" value="Civit Status" style="shape=partialRectangle;html=1;whiteSpace=wrap;connectable=0;strokeColor=inherit;overflow=hidden;fillColor=none;top=0;left=0;bottom=0;right=0;pointerEvents=1;" parent="_tiB8tEmEpVmkrLslOVU-1" vertex="1">
          <mxGeometry x="640" y="176" width="71" height="40" as="geometry">
            <mxRectangle width="91" height="40" as="alternateBounds" />
          </mxGeometry>
        </mxCell>
        <mxCell id="HOm5d55l4YF25VSeq4_g-19" value="City" style="shape=partialRectangle;html=1;whiteSpace=wrap;connectable=0;strokeColor=inherit;overflow=hidden;fillColor=none;top=0;left=0;bottom=0;right=0;pointerEvents=1;" parent="_tiB8tEmEpVmkrLslOVU-1" vertex="1">
          <mxGeometry x="195" y="1220" width="60" height="40" as="geometry">
            <mxRectangle width="60" height="40" as="alternateBounds" />
          </mxGeometry>
        </mxCell>
        <mxCell id="HOm5d55l4YF25VSeq4_g-20" value="Street" style="shape=partialRectangle;html=1;whiteSpace=wrap;connectable=0;strokeColor=inherit;overflow=hidden;fillColor=none;top=0;left=0;bottom=0;right=0;pointerEvents=1;" parent="_tiB8tEmEpVmkrLslOVU-1" vertex="1">
          <mxGeometry x="260" y="1220" width="70" height="40" as="geometry">
            <mxRectangle width="60" height="40" as="alternateBounds" />
          </mxGeometry>
        </mxCell>
        <mxCell id="HOm5d55l4YF25VSeq4_g-22" value="Dpt_name" style="shape=partialRectangle;html=1;whiteSpace=wrap;connectable=0;strokeColor=inherit;overflow=hidden;fillColor=none;top=0;left=0;bottom=0;right=0;pointerEvents=1;" parent="_tiB8tEmEpVmkrLslOVU-1" vertex="1">
          <mxGeometry x="400" y="1220" width="80" height="40" as="geometry">
            <mxRectangle width="80" height="40" as="alternateBounds" />
          </mxGeometry>
        </mxCell>
        <mxCell id="HOm5d55l4YF25VSeq4_g-23" value="Nic" style="shape=partialRectangle;html=1;whiteSpace=wrap;connectable=0;strokeColor=inherit;overflow=hidden;fillColor=none;top=0;left=0;bottom=0;right=0;pointerEvents=1;" parent="_tiB8tEmEpVmkrLslOVU-1" vertex="1">
          <mxGeometry x="487" y="1220" width="50" height="40" as="geometry">
            <mxRectangle width="50" height="40" as="alternateBounds" />
          </mxGeometry>
        </mxCell>
        <mxCell id="HOm5d55l4YF25VSeq4_g-24" value="Education_lvl" style="shape=partialRectangle;html=1;whiteSpace=wrap;connectable=0;strokeColor=inherit;overflow=hidden;fillColor=none;top=0;left=0;bottom=0;right=0;pointerEvents=1;" parent="_tiB8tEmEpVmkrLslOVU-1" vertex="1">
          <mxGeometry x="530" y="1220" width="110" height="40" as="geometry">
            <mxRectangle width="110" height="40" as="alternateBounds" />
          </mxGeometry>
        </mxCell>
        <mxCell id="HOm5d55l4YF25VSeq4_g-25" value="Email" style="shape=partialRectangle;html=1;whiteSpace=wrap;connectable=0;strokeColor=inherit;overflow=hidden;fillColor=none;top=0;left=0;bottom=0;right=0;pointerEvents=1;" parent="_tiB8tEmEpVmkrLslOVU-1" vertex="1">
          <mxGeometry x="630" y="1220" width="60" height="40" as="geometry">
            <mxRectangle width="60" height="40" as="alternateBounds" />
          </mxGeometry>
        </mxCell>
        <mxCell id="J3m7LMkaWLujBNEeEa09-0" value="ADMIN" style="text;strokeColor=none;align=center;fillColor=none;html=1;verticalAlign=middle;whiteSpace=wrap;rounded=0;" parent="_tiB8tEmEpVmkrLslOVU-1" vertex="1">
          <mxGeometry x="64" y="1615" width="76" height="30" as="geometry" />
        </mxCell>
        <mxCell id="J3m7LMkaWLujBNEeEa09-3" value="TECH_OFFICER" style="text;strokeColor=none;align=center;fillColor=none;html=1;verticalAlign=middle;whiteSpace=wrap;rounded=0;" parent="_tiB8tEmEpVmkrLslOVU-1" vertex="1">
          <mxGeometry x="100" y="1853" width="60" height="30" as="geometry" />
        </mxCell>
        <mxCell id="J3m7LMkaWLujBNEeEa09-4" value="" style="shape=table;startSize=0;container=1;collapsible=0;childLayout=tableLayout;" parent="_tiB8tEmEpVmkrLslOVU-1" vertex="1">
          <mxGeometry x="80" y="1657" width="615" height="40" as="geometry" />
        </mxCell>
        <mxCell id="J3m7LMkaWLujBNEeEa09-5" value="" style="shape=tableRow;horizontal=0;startSize=0;swimlaneHead=0;swimlaneBody=0;strokeColor=inherit;top=0;left=0;bottom=0;right=0;collapsible=0;dropTarget=0;fillColor=none;points=[[0,0.5],[1,0.5]];portConstraint=eastwest;" parent="J3m7LMkaWLujBNEeEa09-4" vertex="1">
          <mxGeometry width="615" height="40" as="geometry" />
        </mxCell>
        <mxCell id="J3m7LMkaWLujBNEeEa09-6" value="&lt;u&gt;Admin_id&lt;/u&gt;" style="shape=partialRectangle;html=1;whiteSpace=wrap;connectable=0;strokeColor=inherit;overflow=hidden;fillColor=none;top=0;left=0;bottom=0;right=0;pointerEvents=1;" parent="J3m7LMkaWLujBNEeEa09-5" vertex="1">
          <mxGeometry width="77" height="40" as="geometry">
            <mxRectangle width="77" height="40" as="alternateBounds" />
          </mxGeometry>
        </mxCell>
        <mxCell id="J3m7LMkaWLujBNEeEa09-7" value="No" style="shape=partialRectangle;html=1;whiteSpace=wrap;connectable=0;strokeColor=inherit;overflow=hidden;fillColor=none;top=0;left=0;bottom=0;right=0;pointerEvents=1;" parent="J3m7LMkaWLujBNEeEa09-5" vertex="1">
          <mxGeometry x="77" width="56" height="40" as="geometry">
            <mxRectangle width="56" height="40" as="alternateBounds" />
          </mxGeometry>
        </mxCell>
        <mxCell id="J3m7LMkaWLujBNEeEa09-8" value="City" style="shape=partialRectangle;html=1;whiteSpace=wrap;connectable=0;strokeColor=inherit;overflow=hidden;fillColor=none;top=0;left=0;bottom=0;right=0;pointerEvents=1;" parent="J3m7LMkaWLujBNEeEa09-5" vertex="1">
          <mxGeometry x="133" width="55" height="40" as="geometry">
            <mxRectangle width="55" height="40" as="alternateBounds" />
          </mxGeometry>
        </mxCell>
        <mxCell id="J3m7LMkaWLujBNEeEa09-9" value="Street" style="shape=partialRectangle;html=1;whiteSpace=wrap;connectable=0;strokeColor=inherit;overflow=hidden;fillColor=none;top=0;left=0;bottom=0;right=0;pointerEvents=1;" parent="J3m7LMkaWLujBNEeEa09-5" vertex="1">
          <mxGeometry x="188" width="55" height="40" as="geometry">
            <mxRectangle width="55" height="40" as="alternateBounds" />
          </mxGeometry>
        </mxCell>
        <mxCell id="J3m7LMkaWLujBNEeEa09-10" value="A_name" style="shape=partialRectangle;html=1;whiteSpace=wrap;connectable=0;strokeColor=inherit;overflow=hidden;fillColor=none;top=0;left=0;bottom=0;right=0;pointerEvents=1;" parent="J3m7LMkaWLujBNEeEa09-5" vertex="1">
          <mxGeometry x="243" width="57" height="40" as="geometry">
            <mxRectangle width="57" height="40" as="alternateBounds" />
          </mxGeometry>
        </mxCell>
        <mxCell id="J3m7LMkaWLujBNEeEa09-13" value="A_nic" style="shape=partialRectangle;html=1;whiteSpace=wrap;connectable=0;strokeColor=inherit;overflow=hidden;fillColor=none;top=0;left=0;bottom=0;right=0;pointerEvents=1;" parent="J3m7LMkaWLujBNEeEa09-5" vertex="1">
          <mxGeometry x="300" width="55" height="40" as="geometry">
            <mxRectangle width="55" height="40" as="alternateBounds" />
          </mxGeometry>
        </mxCell>
        <mxCell id="J3m7LMkaWLujBNEeEa09-14" value="Phone" style="shape=partialRectangle;html=1;whiteSpace=wrap;connectable=0;strokeColor=inherit;overflow=hidden;fillColor=none;top=0;left=0;bottom=0;right=0;pointerEvents=1;" parent="J3m7LMkaWLujBNEeEa09-5" vertex="1">
          <mxGeometry x="355" width="55" height="40" as="geometry">
            <mxRectangle width="55" height="40" as="alternateBounds" />
          </mxGeometry>
        </mxCell>
        <mxCell id="J3m7LMkaWLujBNEeEa09-11" value="Email" style="shape=partialRectangle;html=1;whiteSpace=wrap;connectable=0;strokeColor=inherit;overflow=hidden;fillColor=none;top=0;left=0;bottom=0;right=0;pointerEvents=1;" parent="J3m7LMkaWLujBNEeEa09-5" vertex="1">
          <mxGeometry x="410" width="55" height="40" as="geometry">
            <mxRectangle width="55" height="40" as="alternateBounds" />
          </mxGeometry>
        </mxCell>
        <mxCell id="J3m7LMkaWLujBNEeEa09-12" value="Civil_status" style="shape=partialRectangle;html=1;whiteSpace=wrap;connectable=0;strokeColor=inherit;overflow=hidden;fillColor=none;top=0;left=0;bottom=0;right=0;pointerEvents=1;" parent="J3m7LMkaWLujBNEeEa09-5" vertex="1">
          <mxGeometry x="465" width="75" height="40" as="geometry">
            <mxRectangle width="75" height="40" as="alternateBounds" />
          </mxGeometry>
        </mxCell>
        <mxCell id="J3m7LMkaWLujBNEeEa09-15" value="Dpt_name" style="shape=partialRectangle;html=1;whiteSpace=wrap;connectable=0;strokeColor=inherit;overflow=hidden;fillColor=none;top=0;left=0;bottom=0;right=0;pointerEvents=1;" parent="J3m7LMkaWLujBNEeEa09-5" vertex="1">
          <mxGeometry x="540" width="75" height="40" as="geometry">
            <mxRectangle width="75" height="40" as="alternateBounds" />
          </mxGeometry>
        </mxCell>
        <mxCell id="J3m7LMkaWLujBNEeEa09-16" value="DEAN" style="text;strokeColor=none;align=center;fillColor=none;html=1;verticalAlign=middle;whiteSpace=wrap;rounded=0;" parent="_tiB8tEmEpVmkrLslOVU-1" vertex="1">
          <mxGeometry x="72" y="1734" width="60" height="30" as="geometry" />
        </mxCell>
        <mxCell id="J3m7LMkaWLujBNEeEa09-17" value="" style="shape=table;startSize=0;container=1;collapsible=0;childLayout=tableLayout;" parent="_tiB8tEmEpVmkrLslOVU-1" vertex="1">
          <mxGeometry x="80" y="1777" width="560" height="40" as="geometry" />
        </mxCell>
        <mxCell id="J3m7LMkaWLujBNEeEa09-18" value="" style="shape=tableRow;horizontal=0;startSize=0;swimlaneHead=0;swimlaneBody=0;strokeColor=inherit;top=0;left=0;bottom=0;right=0;collapsible=0;dropTarget=0;fillColor=none;points=[[0,0.5],[1,0.5]];portConstraint=eastwest;" parent="J3m7LMkaWLujBNEeEa09-17" vertex="1">
          <mxGeometry width="560" height="40" as="geometry" />
        </mxCell>
        <mxCell id="J3m7LMkaWLujBNEeEa09-19" value="&lt;u&gt;Dean_id&lt;/u&gt;" style="shape=partialRectangle;html=1;whiteSpace=wrap;connectable=0;strokeColor=inherit;overflow=hidden;fillColor=none;top=0;left=0;bottom=0;right=0;pointerEvents=1;" parent="J3m7LMkaWLujBNEeEa09-18" vertex="1">
          <mxGeometry width="60" height="40" as="geometry">
            <mxRectangle width="60" height="40" as="alternateBounds" />
          </mxGeometry>
        </mxCell>
        <mxCell id="J3m7LMkaWLujBNEeEa09-20" value="No" style="shape=partialRectangle;html=1;whiteSpace=wrap;connectable=0;strokeColor=inherit;overflow=hidden;fillColor=none;top=0;left=0;bottom=0;right=0;pointerEvents=1;" parent="J3m7LMkaWLujBNEeEa09-18" vertex="1">
          <mxGeometry x="60" width="60" height="40" as="geometry">
            <mxRectangle width="60" height="40" as="alternateBounds" />
          </mxGeometry>
        </mxCell>
        <mxCell id="J3m7LMkaWLujBNEeEa09-26" value="City" style="shape=partialRectangle;html=1;whiteSpace=wrap;connectable=0;strokeColor=inherit;overflow=hidden;fillColor=none;top=0;left=0;bottom=0;right=0;pointerEvents=1;" parent="J3m7LMkaWLujBNEeEa09-18" vertex="1">
          <mxGeometry x="120" width="60" height="40" as="geometry">
            <mxRectangle width="60" height="40" as="alternateBounds" />
          </mxGeometry>
        </mxCell>
        <mxCell id="J3m7LMkaWLujBNEeEa09-25" value="Street" style="shape=partialRectangle;html=1;whiteSpace=wrap;connectable=0;strokeColor=inherit;overflow=hidden;fillColor=none;top=0;left=0;bottom=0;right=0;pointerEvents=1;" parent="J3m7LMkaWLujBNEeEa09-18" vertex="1">
          <mxGeometry x="180" width="60" height="40" as="geometry">
            <mxRectangle width="60" height="40" as="alternateBounds" />
          </mxGeometry>
        </mxCell>
        <mxCell id="J3m7LMkaWLujBNEeEa09-27" value="D_name" style="shape=partialRectangle;html=1;whiteSpace=wrap;connectable=0;strokeColor=inherit;overflow=hidden;fillColor=none;top=0;left=0;bottom=0;right=0;pointerEvents=1;" parent="J3m7LMkaWLujBNEeEa09-18" vertex="1">
          <mxGeometry x="240" width="60" height="40" as="geometry">
            <mxRectangle width="60" height="40" as="alternateBounds" />
          </mxGeometry>
        </mxCell>
        <mxCell id="J3m7LMkaWLujBNEeEa09-24" value="Phone" style="shape=partialRectangle;html=1;whiteSpace=wrap;connectable=0;strokeColor=inherit;overflow=hidden;fillColor=none;top=0;left=0;bottom=0;right=0;pointerEvents=1;" parent="J3m7LMkaWLujBNEeEa09-18" vertex="1">
          <mxGeometry x="300" width="60" height="40" as="geometry">
            <mxRectangle width="60" height="40" as="alternateBounds" />
          </mxGeometry>
        </mxCell>
        <mxCell id="J3m7LMkaWLujBNEeEa09-23" value="D_nic" style="shape=partialRectangle;html=1;whiteSpace=wrap;connectable=0;strokeColor=inherit;overflow=hidden;fillColor=none;top=0;left=0;bottom=0;right=0;pointerEvents=1;" parent="J3m7LMkaWLujBNEeEa09-18" vertex="1">
          <mxGeometry x="360" width="60" height="40" as="geometry">
            <mxRectangle width="60" height="40" as="alternateBounds" />
          </mxGeometry>
        </mxCell>
        <mxCell id="J3m7LMkaWLujBNEeEa09-22" value="Email" style="shape=partialRectangle;html=1;whiteSpace=wrap;connectable=0;strokeColor=inherit;overflow=hidden;fillColor=none;top=0;left=0;bottom=0;right=0;pointerEvents=1;" parent="J3m7LMkaWLujBNEeEa09-18" vertex="1">
          <mxGeometry x="420" width="60" height="40" as="geometry">
            <mxRectangle width="60" height="40" as="alternateBounds" />
          </mxGeometry>
        </mxCell>
        <mxCell id="J3m7LMkaWLujBNEeEa09-21" value="Civil_status" style="shape=partialRectangle;html=1;whiteSpace=wrap;connectable=0;strokeColor=inherit;overflow=hidden;fillColor=none;top=0;left=0;bottom=0;right=0;pointerEvents=1;" parent="J3m7LMkaWLujBNEeEa09-18" vertex="1">
          <mxGeometry x="480" width="80" height="40" as="geometry">
            <mxRectangle width="80" height="40" as="alternateBounds" />
          </mxGeometry>
        </mxCell>
        <mxCell id="J3m7LMkaWLujBNEeEa09-32" value="" style="shape=table;startSize=0;container=1;collapsible=0;childLayout=tableLayout;" parent="_tiB8tEmEpVmkrLslOVU-1" vertex="1">
          <mxGeometry x="80" y="1898" width="500" height="40" as="geometry" />
        </mxCell>
        <mxCell id="J3m7LMkaWLujBNEeEa09-33" value="" style="shape=tableRow;horizontal=0;startSize=0;swimlaneHead=0;swimlaneBody=0;strokeColor=inherit;top=0;left=0;bottom=0;right=0;collapsible=0;dropTarget=0;fillColor=none;points=[[0,0.5],[1,0.5]];portConstraint=eastwest;" parent="J3m7LMkaWLujBNEeEa09-32" vertex="1">
          <mxGeometry width="500" height="40" as="geometry" />
        </mxCell>
        <mxCell id="J3m7LMkaWLujBNEeEa09-34" value="&lt;u&gt;Tech_id&lt;/u&gt;" style="shape=partialRectangle;html=1;whiteSpace=wrap;connectable=0;strokeColor=inherit;overflow=hidden;fillColor=none;top=0;left=0;bottom=0;right=0;pointerEvents=1;" parent="J3m7LMkaWLujBNEeEa09-33" vertex="1">
          <mxGeometry width="60" height="40" as="geometry">
            <mxRectangle width="60" height="40" as="alternateBounds" />
          </mxGeometry>
        </mxCell>
        <mxCell id="J3m7LMkaWLujBNEeEa09-35" value="No" style="shape=partialRectangle;html=1;whiteSpace=wrap;connectable=0;strokeColor=inherit;overflow=hidden;fillColor=none;top=0;left=0;bottom=0;right=0;pointerEvents=1;" parent="J3m7LMkaWLujBNEeEa09-33" vertex="1">
          <mxGeometry x="60" width="60" height="40" as="geometry">
            <mxRectangle width="60" height="40" as="alternateBounds" />
          </mxGeometry>
        </mxCell>
        <mxCell id="J3m7LMkaWLujBNEeEa09-36" value="City" style="shape=partialRectangle;html=1;whiteSpace=wrap;connectable=0;strokeColor=inherit;overflow=hidden;fillColor=none;top=0;left=0;bottom=0;right=0;pointerEvents=1;" parent="J3m7LMkaWLujBNEeEa09-33" vertex="1">
          <mxGeometry x="120" width="60" height="40" as="geometry">
            <mxRectangle width="60" height="40" as="alternateBounds" />
          </mxGeometry>
        </mxCell>
        <mxCell id="J3m7LMkaWLujBNEeEa09-37" value="Street" style="shape=partialRectangle;html=1;whiteSpace=wrap;connectable=0;strokeColor=inherit;overflow=hidden;fillColor=none;top=0;left=0;bottom=0;right=0;pointerEvents=1;" parent="J3m7LMkaWLujBNEeEa09-33" vertex="1">
          <mxGeometry x="180" width="60" height="40" as="geometry">
            <mxRectangle width="60" height="40" as="alternateBounds" />
          </mxGeometry>
        </mxCell>
        <mxCell id="J3m7LMkaWLujBNEeEa09-38" value="T_name" style="shape=partialRectangle;html=1;whiteSpace=wrap;connectable=0;strokeColor=inherit;overflow=hidden;fillColor=none;top=0;left=0;bottom=0;right=0;pointerEvents=1;" parent="J3m7LMkaWLujBNEeEa09-33" vertex="1">
          <mxGeometry x="240" width="60" height="40" as="geometry">
            <mxRectangle width="60" height="40" as="alternateBounds" />
          </mxGeometry>
        </mxCell>
        <mxCell id="J3m7LMkaWLujBNEeEa09-40" value="T_nic" style="shape=partialRectangle;html=1;whiteSpace=wrap;connectable=0;strokeColor=inherit;overflow=hidden;fillColor=none;top=0;left=0;bottom=0;right=0;pointerEvents=1;" parent="J3m7LMkaWLujBNEeEa09-33" vertex="1">
          <mxGeometry x="300" width="60" height="40" as="geometry">
            <mxRectangle width="60" height="40" as="alternateBounds" />
          </mxGeometry>
        </mxCell>
        <mxCell id="J3m7LMkaWLujBNEeEa09-41" value="Email" style="shape=partialRectangle;html=1;whiteSpace=wrap;connectable=0;strokeColor=inherit;overflow=hidden;fillColor=none;top=0;left=0;bottom=0;right=0;pointerEvents=1;" parent="J3m7LMkaWLujBNEeEa09-33" vertex="1">
          <mxGeometry x="360" width="60" height="40" as="geometry">
            <mxRectangle width="60" height="40" as="alternateBounds" />
          </mxGeometry>
        </mxCell>
        <mxCell id="J3m7LMkaWLujBNEeEa09-42" value="Civil_status" style="shape=partialRectangle;html=1;whiteSpace=wrap;connectable=0;strokeColor=inherit;overflow=hidden;fillColor=none;top=0;left=0;bottom=0;right=0;pointerEvents=1;" parent="J3m7LMkaWLujBNEeEa09-33" vertex="1">
          <mxGeometry x="420" width="80" height="40" as="geometry">
            <mxRectangle width="80" height="40" as="alternateBounds" />
          </mxGeometry>
        </mxCell>
        <mxCell id="J3m7LMkaWLujBNEeEa09-43" value="TECH_OFFICER_PHONE" style="text;strokeColor=none;align=center;fillColor=none;html=1;verticalAlign=middle;whiteSpace=wrap;rounded=0;" parent="_tiB8tEmEpVmkrLslOVU-1" vertex="1">
          <mxGeometry x="90" y="2000" width="130" height="30" as="geometry" />
        </mxCell>
        <mxCell id="J3m7LMkaWLujBNEeEa09-45" value="" style="shape=table;startSize=0;container=1;collapsible=0;childLayout=tableLayout;" parent="_tiB8tEmEpVmkrLslOVU-1" vertex="1">
          <mxGeometry x="80" y="2034" width="120" height="40" as="geometry" />
        </mxCell>
        <mxCell id="J3m7LMkaWLujBNEeEa09-46" value="" style="shape=tableRow;horizontal=0;startSize=0;swimlaneHead=0;swimlaneBody=0;strokeColor=inherit;top=0;left=0;bottom=0;right=0;collapsible=0;dropTarget=0;fillColor=none;points=[[0,0.5],[1,0.5]];portConstraint=eastwest;" parent="J3m7LMkaWLujBNEeEa09-45" vertex="1">
          <mxGeometry width="120" height="40" as="geometry" />
        </mxCell>
        <mxCell id="J3m7LMkaWLujBNEeEa09-47" value="&lt;u&gt;Tech_id&lt;/u&gt;" style="shape=partialRectangle;html=1;whiteSpace=wrap;connectable=0;strokeColor=inherit;overflow=hidden;fillColor=none;top=0;left=0;bottom=0;right=0;pointerEvents=1;" parent="J3m7LMkaWLujBNEeEa09-46" vertex="1">
          <mxGeometry width="60" height="40" as="geometry">
            <mxRectangle width="60" height="40" as="alternateBounds" />
          </mxGeometry>
        </mxCell>
        <mxCell id="J3m7LMkaWLujBNEeEa09-48" value="&lt;u&gt;Phone&lt;/u&gt;" style="shape=partialRectangle;html=1;whiteSpace=wrap;connectable=0;strokeColor=inherit;overflow=hidden;fillColor=none;top=0;left=0;bottom=0;right=0;pointerEvents=1;" parent="J3m7LMkaWLujBNEeEa09-46" vertex="1">
          <mxGeometry x="60" width="60" height="40" as="geometry">
            <mxRectangle width="60" height="40" as="alternateBounds" />
          </mxGeometry>
        </mxCell>
        <mxCell id="J3m7LMkaWLujBNEeEa09-55" style="edgeStyle=orthogonalEdgeStyle;rounded=0;orthogonalLoop=1;jettySize=auto;html=1;entryX=0.046;entryY=1.1;entryDx=0;entryDy=0;entryPerimeter=0;" parent="_tiB8tEmEpVmkrLslOVU-1" source="J3m7LMkaWLujBNEeEa09-46" target="J3m7LMkaWLujBNEeEa09-33" edge="1">
          <mxGeometry relative="1" as="geometry">
            <mxPoint x="40" y="2036" as="targetPoint" />
            <Array as="points">
              <mxPoint x="110" y="2096" />
              <mxPoint x="40" y="2096" />
              <mxPoint x="40" y="1976" />
              <mxPoint x="103" y="1976" />
            </Array>
          </mxGeometry>
        </mxCell>
        <mxCell id="T4SMSqjg_IWoAmpGLwSc-39" value="No" style="shape=partialRectangle;html=1;whiteSpace=wrap;connectable=0;strokeColor=inherit;overflow=hidden;fillColor=none;top=0;left=0;bottom=0;right=0;pointerEvents=1;" parent="_tiB8tEmEpVmkrLslOVU-1" vertex="1">
          <mxGeometry x="143" y="1220" width="60" height="40" as="geometry">
            <mxRectangle width="60" height="40" as="alternateBounds" />
          </mxGeometry>
        </mxCell>
        <mxCell id="4OUCTV_DzVIucVdYrpgk-0" value="&lt;h2&gt;&lt;font style=&quot;font-size: 38px;&quot;&gt;Relational Mapping&lt;/font&gt;&lt;/h2&gt;" style="text;html=1;whiteSpace=wrap;strokeColor=#001DBC;fillColor=#0050ef;align=center;verticalAlign=middle;rounded=0;fontColor=#ffffff;" vertex="1" parent="_tiB8tEmEpVmkrLslOVU-1">
          <mxGeometry x="210" y="50" width="450" height="70" as="geometry" />
        </mxCell>
      </root>
    </mxGraphModel>
  </diagram>
</mxfile>
